<svg width="39" height="39" viewBox="0 0 39 39" fill="none" xmlns="http://www.w3.org/2000/svg">
<g filter="url(#filter0_d_900_382)">
<circle cx="19.5" cy="15.5" r="15.5" fill="#002D62"/>
<g clip-path="url(#clip0_900_382)">
<path d="M21.1308 13.1408L21.8592 13.8692L14.6867 21.0417H13.9583V20.3133L21.1308 13.1408ZM23.9808 8.375C23.7829 8.375 23.5771 8.45417 23.4267 8.60458L21.9779 10.0533L24.9467 13.0221L26.3954 11.5733C26.7042 11.2646 26.7042 10.7658 26.3954 10.4571L24.5429 8.60458C24.3846 8.44625 24.1867 8.375 23.9808 8.375ZM21.1308 10.9004L12.375 19.6562V22.625H15.3438L24.0996 13.8692L21.1308 10.9004Z" fill="white"/>
</g>
</g>
<defs>
<filter id="filter0_d_900_382" x="0" y="0" width="39" height="39" filterUnits="userSpaceOnUse" color-interpolation-filters="sRGB">
<feFlood flood-opacity="0" result="BackgroundImageFix"/>
<feColorMatrix in="SourceAlpha" type="matrix" values="0 0 0 0 0 0 0 0 0 0 0 0 0 0 0 0 0 0 127 0" result="hardAlpha"/>
<feOffset dy="4"/>
<feGaussianBlur stdDeviation="2"/>
<feComposite in2="hardAlpha" operator="out"/>
<feColorMatrix type="matrix" values="0 0 0 0 0 0 0 0 0 0 0 0 0 0 0 0 0 0 0.25 0"/>
<feBlend mode="normal" in2="BackgroundImageFix" result="effect1_dropShadow_900_382"/>
<feBlend mode="normal" in="SourceGraphic" in2="effect1_dropShadow_900_382" result="shape"/>
</filter>
<clipPath id="clip0_900_382">
<rect width="19" height="19" fill="white" transform="translate(10 6)"/>
</clipPath>
</defs>
</svg>
