<svg width="34" height="34" viewBox="0 0 34 34" fill="none" xmlns="http://www.w3.org/2000/svg">
<circle cx="17" cy="17" r="16.5" fill="#0909A4" stroke="#F3F5F7"/>
<circle cx="25.7551" cy="13.8949" r="2.24489" fill="white"/>
<path d="M9.82157 16H6.95837C6.53772 16 6.32739 15.7877 6.32739 15.3631V11.8332H7.39886V14.8869C7.39886 14.99 7.4187 15.0635 7.45839 15.1071C7.50204 15.1468 7.57546 15.1666 7.67863 15.1666H9.82157V16ZM11.2181 16H10.1466V11.8332H11.2181V16ZM12.5695 11.8332L13.6827 14.9285C13.7025 14.9881 13.7303 15.0178 13.766 15.0178C13.7938 15.0178 13.8216 14.9881 13.8493 14.9285L14.9625 11.8332H16.1054L14.6232 15.4881C14.5518 15.6627 14.4525 15.7996 14.3256 15.8988C14.1986 15.998 14.0121 16.0476 13.766 16.0476C13.3414 16.0476 13.0537 15.8611 12.9029 15.4881L11.4266 11.8332H12.5695ZM19.8085 11.8332V12.6427H17.6655C17.5623 12.6427 17.4889 12.6646 17.4453 12.7082C17.4056 12.7479 17.3858 12.8193 17.3858 12.9225V13.4999H19.7549V14.2737H17.3858V14.9107C17.3858 15.0139 17.4056 15.0873 17.4453 15.1309C17.4889 15.1706 17.5623 15.1904 17.6655 15.1904H19.8323V16H16.9453C16.5246 16 16.3143 15.7877 16.3143 15.3631V12.4761C16.3143 12.0475 16.5246 11.8332 16.9453 11.8332H19.8085Z" fill="white"/>
<path d="M10.7077 18.7904H8.75521C8.27446 18.7904 7.94338 18.8901 7.76197 19.0897C7.58056 19.2893 7.48985 19.6657 7.48985 20.219C7.48985 20.7723 7.58056 21.1487 7.76197 21.3483C7.94338 21.5478 8.27446 21.6476 8.75521 21.6476H9.27223C9.39015 21.6476 9.47179 21.6249 9.51714 21.5796C9.56703 21.5297 9.59197 21.4458 9.59197 21.3279V20.1782H10.8165V21.8721C10.8165 22.3574 10.5761 22.6 10.0954 22.6H8.2858C7.52387 22.6 6.99097 22.4028 6.6871 22.0082C6.38777 21.6136 6.2381 21.0172 6.2381 20.219C6.2381 19.4208 6.38777 18.8244 6.6871 18.4298C6.99097 18.0352 7.52387 17.838 8.2858 17.838H10.7077V18.7904ZM11.0525 22.6L12.8281 18.3414C12.9098 18.1418 13.0163 17.999 13.1479 17.9128C13.2839 17.8266 13.4903 17.7835 13.7669 17.7835C14.0028 17.7835 14.1932 17.8221 14.3384 17.8992C14.488 17.9763 14.6082 18.1237 14.6989 18.3414L16.4813 22.6H15.1956L14.767 21.5116H12.7601L12.3315 22.6H11.0525ZM13.6649 19.0761L13.0594 20.5864H14.4676L13.8622 19.0761C13.8259 18.9763 13.7941 18.9264 13.7669 18.9264C13.7352 18.9264 13.7012 18.9763 13.6649 19.0761ZM21.6299 19.3142L20.6503 22.049C20.5732 22.2622 20.4825 22.4164 20.3781 22.5116C20.2738 22.6068 20.0992 22.6545 19.8543 22.6545C19.6049 22.6545 19.428 22.6068 19.3237 22.5116C19.2194 22.4164 19.1287 22.2622 19.0516 22.049L18.0787 19.3142C18.0379 19.2054 18.0039 19.1509 17.9767 19.1509C17.9313 19.1509 17.9087 19.2008 17.9087 19.3006L17.9427 22.6H16.7181V18.5183C16.7181 18.3686 16.7499 18.2416 16.8134 18.1373C16.8769 18.033 16.9608 17.9581 17.0651 17.9128C17.1739 17.8629 17.276 17.8289 17.3712 17.8107C17.471 17.7926 17.5753 17.7835 17.6842 17.7835C18.2057 17.7835 18.5504 18.0171 18.7182 18.4842L19.7183 21.2326C19.7636 21.3642 19.809 21.4299 19.8543 21.4299C19.8997 21.4299 19.945 21.3642 19.9904 21.2326L20.9904 18.4842C21.1582 18.0171 21.5006 17.7835 22.0177 17.7835C22.6662 17.7835 22.9905 18.0284 22.9905 18.5183V22.6H21.766L21.8068 19.3006C21.8068 19.2008 21.7818 19.1509 21.7319 19.1509C21.7047 19.1509 21.6707 19.2054 21.6299 19.3142ZM27.7337 17.838V18.7632H25.2846C25.1667 18.7632 25.0828 18.7881 25.0329 18.838C24.9876 18.8833 24.9649 18.965 24.9649 19.0829V19.7428H27.6725V20.6272H24.9649V21.3551C24.9649 21.473 24.9876 21.5569 25.0329 21.6068C25.0828 21.6522 25.1667 21.6748 25.2846 21.6748H27.7609V22.6H24.4615C23.9807 22.6 23.7404 22.3574 23.7404 21.8721V18.5727C23.7404 18.0829 23.9807 17.838 24.4615 17.838H27.7337Z" fill="white"/>
</svg>
