<svg width="34" height="34" viewBox="0 0 34 34" fill="none" xmlns="http://www.w3.org/2000/svg">
<circle cx="17" cy="17" r="16.5" fill="#002D62" stroke="#F3F5F7"/>
<path d="M22.9293 26.6208C22.8585 26.4316 22.6698 26.3134 22.4102 26.3134C22.127 26.3134 21.9619 26.4789 21.8911 26.6681C21.6079 26.9991 21.7259 27.6848 22.3158 27.6848C22.3394 27.6848 22.3394 27.6848 22.363 27.6848C22.4574 27.7321 22.5518 27.7793 22.6698 27.7793C23.3305 27.7321 23.4249 26.8336 22.9293 26.6208Z" fill="white"/>
<path d="M6.34093 17.376L7.2612 11.5832L13.7267 8.34395L15.5672 7.09082H25.1474L26.398 12.0324L27.8138 14.515L25.3126 20.828L17.7145 27.0227C17.7145 27.0227 13.7267 28.2995 13.7502 28.134C13.7502 27.9685 6.64769 22.1757 6.64769 22.1757L5.49146 18.3454L6.34093 17.376Z" fill="white"/>
<path fill-rule="evenodd" clip-rule="evenodd" d="M15.5412 7.00623H25.2134L26.4773 12.0005L27.9075 14.5084L25.3832 20.8797L17.7556 27.0984L17.7404 27.1033L17.7146 27.0227C17.7404 27.1033 17.7404 27.1033 17.7404 27.1033L17.7402 27.1034L17.6955 27.1177C17.6663 27.127 17.6234 27.1406 17.5689 27.1579C17.4598 27.1925 17.304 27.2418 17.1172 27.3004C16.7435 27.4176 16.2454 27.5721 15.7479 27.7215C15.2507 27.8708 14.7532 28.0152 14.3811 28.1121C14.1954 28.1604 14.039 28.1974 13.9288 28.2171C13.8746 28.2268 13.8271 28.2331 13.7918 28.2334C13.7757 28.2336 13.7527 28.2327 13.7313 28.2251C13.7202 28.2212 13.7019 28.2128 13.6868 28.1945C13.6786 28.1846 13.6729 28.1735 13.6695 28.1619C13.6684 28.1606 13.667 28.159 13.6655 28.1571C13.6544 28.1441 13.6365 28.1251 13.611 28.0999C13.5605 28.0499 13.4855 27.9803 13.3886 27.8935C13.1953 27.72 12.9185 27.4807 12.5857 27.1977C11.9203 26.6317 11.0329 25.8924 10.1451 25.158C9.25744 24.4237 8.36973 23.6945 7.70392 23.1489C7.37102 22.8761 7.09361 22.6492 6.89942 22.4905C6.80233 22.4111 6.72604 22.3488 6.67403 22.3064L6.59438 22.2414C6.59433 22.2413 6.5943 22.2413 6.64778 22.1757L6.59438 22.2414L6.57425 22.2249L5.39697 18.3249L6.26128 17.3386L7.18453 11.527L13.6838 8.27085L15.5412 7.00623ZM6.72132 22.1265L6.78106 22.1753C6.83309 22.2177 6.9094 22.2801 7.00652 22.3594C7.20076 22.5182 7.47823 22.7451 7.81119 23.018C8.47712 23.5637 9.36504 24.293 10.253 25.0276C11.1409 25.7621 12.0291 26.502 12.6954 27.0687C13.0285 27.352 13.3066 27.5925 13.5017 27.7675C13.5991 27.8548 13.6766 27.9267 13.7301 27.9797C13.7567 28.006 13.7787 28.029 13.7944 28.0476C13.7988 28.0526 13.8031 28.058 13.8072 28.0634C13.8284 28.0618 13.8588 28.0576 13.899 28.0505C14.0024 28.032 14.1536 27.9964 14.3385 27.9483C14.7074 27.8523 15.2025 27.7086 15.6993 27.5594C16.1958 27.4103 16.6932 27.256 17.0665 27.1389C17.2532 27.0804 17.4087 27.0312 17.5177 26.9966C17.5721 26.9793 17.6149 26.9657 17.6441 26.9564L17.6735 26.947L25.2421 20.7763L27.7202 14.5217L26.3189 12.0644L25.0816 7.17547H15.5934L13.7697 8.41711L7.33804 11.6394L6.42076 17.4134L5.58612 18.3659L6.72132 22.1265Z" fill="white"/>
<path d="M10.9188 7.20904C11.0132 7.11446 11.1312 7.09082 11.2492 7.09082C12.6886 7.09082 14.1516 7.09082 15.591 7.09082C15.709 7.09082 15.8741 7.11447 15.9213 7.25633C15.9685 7.32726 15.9213 7.42184 15.8977 7.51641C15.7797 7.91836 15.6854 8.29666 15.591 8.69861C15.3786 9.45522 15.1662 10.2355 14.9539 10.9921C14.8831 11.465 14.6943 11.9378 14.5763 12.4107C14.5763 12.5762 14.3875 12.5999 14.246 12.5999C13.3021 12.5999 12.3582 12.5999 11.4144 12.5999C11.2256 12.5999 11.1076 12.4344 10.966 12.3161C10.6593 11.9851 10.2817 11.6778 9.97498 11.3467C9.57384 11.725 9.12551 12.0797 8.70077 12.458C8.60638 12.5526 8.4884 12.6235 8.34682 12.6235C7.30857 12.6235 6.29392 12.6235 5.25567 12.6235C5.0433 12.6472 4.94892 12.3871 5.0669 12.2452C5.18488 12.127 5.30287 12.0088 5.42085 11.9142C7.28498 10.33 9.10191 8.7459 10.9188 7.20904ZM11.1312 7.30362C9.1727 8.98234 7.21418 10.6847 5.25567 12.3634C6.34111 12.3634 7.40296 12.3634 8.4884 12.3634C9.00753 11.9142 9.52665 11.465 10.0458 11.0394C10.4941 11.4886 10.9424 11.9378 11.4144 12.3634C12.4054 12.3634 13.3965 12.3634 14.3875 12.3634C14.8595 10.6847 15.2842 8.98234 15.7561 7.30362C14.1988 7.30362 12.665 7.30362 11.1312 7.30362Z" fill="#FDFDFD"/>
<path fill-rule="evenodd" clip-rule="evenodd" d="M11.2491 7.17547C11.1419 7.17547 11.0504 7.19688 10.9786 7.26884L10.9761 7.27137L10.9734 7.27368C9.9951 8.10114 9.01822 8.94112 8.0337 9.78768C7.18851 10.5144 6.33768 11.246 5.47551 11.9787L5.47459 11.9795L5.47364 11.9802C5.36099 12.0706 5.24742 12.184 5.12972 12.3019C5.11152 12.3251 5.10156 12.3545 5.10013 12.3852L5.20047 12.2992C6.17959 11.46 7.15874 10.6148 8.13802 9.76949C9.11722 8.92427 10.0967 8.07883 11.076 7.23939L11.0998 7.21902H15.7913C15.78 7.21151 15.767 7.20505 15.7524 7.19946C15.7045 7.1812 15.6457 7.17547 15.5908 7.17547H11.2491ZM15.846 7.29614L15.8375 7.32655C15.6017 8.1652 15.3777 9.00987 15.1535 9.85524L15.1535 9.85542C14.9293 10.7005 14.705 11.5464 14.4689 12.3864L14.4515 12.4481H11.3817L11.3576 12.4263C10.9028 12.0162 10.4702 11.5845 10.04 11.1535C9.54165 11.5638 9.04312 11.9952 8.54364 12.4274L8.5198 12.4481H5.10912C5.11074 12.4528 5.11257 12.4575 5.11462 12.4621C5.1375 12.5137 5.18231 12.5466 5.24617 12.5394L5.25084 12.5389H8.34669C8.45785 12.5389 8.55556 12.4836 8.64074 12.3983L8.6425 12.3965L8.64435 12.3948C8.82067 12.2378 8.99841 12.087 9.17437 11.9376C9.42878 11.7217 9.67948 11.509 9.91679 11.2852L9.97889 11.2266L10.0369 11.2892C10.1878 11.4521 10.3566 11.6096 10.5281 11.7696L10.5293 11.7707C10.6982 11.9283 10.8698 12.0884 11.0244 12.2548C11.0576 12.2828 11.0895 12.313 11.1191 12.3412C11.1219 12.3438 11.1246 12.3464 11.1273 12.349C11.1614 12.3812 11.1929 12.4106 11.225 12.4361C11.2887 12.4866 11.347 12.5153 11.4142 12.5153H14.2458C14.3147 12.5153 14.3832 12.5091 14.432 12.4891C14.4553 12.4795 14.4695 12.4686 14.4778 12.458C14.4851 12.4486 14.4916 12.4348 14.4916 12.4107V12.4003L14.4941 12.3903C14.5389 12.2106 14.594 12.0302 14.6484 11.8524C14.6663 11.7937 14.6842 11.7352 14.7016 11.6772C14.7722 11.4414 14.8356 11.2098 14.87 10.9796L14.8708 10.9743L14.8723 10.9692C14.9784 10.5911 15.0845 10.2071 15.1907 9.82287L15.1908 9.82248C15.2968 9.439 15.4028 9.05534 15.5089 8.67753C15.6032 8.27606 15.6977 7.89708 15.8159 7.49423C15.8214 7.47245 15.828 7.45068 15.8338 7.43138C15.8349 7.428 15.8359 7.4247 15.8368 7.42149C15.8438 7.39822 15.8494 7.37876 15.8529 7.36097C15.8602 7.32453 15.8558 7.31078 15.8507 7.30323L15.846 7.29614ZM10.8615 7.14666C10.9779 7.03171 11.1213 7.00623 11.2491 7.00623H15.5908C15.6539 7.00623 15.7367 7.01231 15.8127 7.04135C15.8882 7.07017 15.9625 7.12413 15.9979 7.21957C16.0333 7.28011 16.0288 7.34463 16.0189 7.3941C16.0136 7.42063 16.0059 7.44699 15.9989 7.47027C15.9978 7.47396 15.9967 7.47758 15.9956 7.48113C15.9896 7.5011 15.9842 7.51898 15.9797 7.53693L15.9793 7.53861L15.9788 7.54027C15.8614 7.94012 15.7674 8.31675 15.6732 8.71798L15.6728 8.71976L15.6723 8.72151C15.5662 9.09959 15.4601 9.4836 15.3539 9.86781L15.3537 9.86833C15.2481 10.2507 15.1423 10.6332 15.0366 11.0099C15.0001 11.2508 14.9342 11.4903 14.8637 11.7257C14.8457 11.7859 14.8274 11.8457 14.8092 11.9052C14.7562 12.0788 14.7038 12.2501 14.6606 12.422C14.6585 12.476 14.6415 12.5233 14.6112 12.5622C14.5796 12.6026 14.5378 12.6286 14.4962 12.6457C14.4152 12.6789 14.3185 12.6845 14.2458 12.6845H11.4142C11.2927 12.6845 11.1977 12.6304 11.1198 12.5687C11.0811 12.538 11.0447 12.5038 11.0109 12.4718C11.0084 12.4694 11.0059 12.467 11.0033 12.4646C10.9716 12.4345 10.9421 12.4066 10.9117 12.3811L10.9075 12.3777L10.9038 12.3737C10.7529 12.2108 10.5842 12.0534 10.4127 11.8933L10.4115 11.8922C10.2622 11.753 10.1109 11.6118 9.97109 11.4661C9.7499 11.6711 9.51353 11.8718 9.27726 12.0724C9.10229 12.2209 8.92738 12.3695 8.75872 12.5196C8.65534 12.6226 8.51769 12.7082 8.34669 12.7082H5.2599C5.11396 12.7223 5.00729 12.6376 4.95992 12.5308C4.91357 12.4263 4.91903 12.2905 5.00171 12.1911L5.00416 12.1882L5.00885 12.1835C5.12512 12.067 5.24551 11.9463 5.36683 11.849C6.22617 11.1187 7.07673 10.3873 7.92209 9.66044C8.90705 8.81352 9.88495 7.97267 10.8615 7.14666ZM11.1624 7.38827C10.1912 8.22081 9.21998 9.05914 8.24864 9.89758C7.32727 10.6929 6.40573 11.4883 5.48422 12.2788H8.45674C8.96779 11.8366 9.47981 11.3939 9.99199 10.974L10.0513 10.9253L10.1055 10.9796C10.5465 11.4214 10.9856 11.8614 11.4468 12.2788H14.3233C14.5527 11.4605 14.7712 10.6365 14.9899 9.81186C15.2045 9.00279 15.4193 8.19291 15.6444 7.38827H11.1624Z" fill="white"/>
<path d="M16.3461 7.30362C16.3697 7.11447 16.582 7.06718 16.7236 7.09082C19.0833 7.09082 21.4429 7.09082 23.8026 7.09082C23.9913 7.06718 24.1329 7.30362 24.0385 7.46913C23.897 7.89472 23.8026 8.34396 23.661 8.76955C23.6374 8.86412 23.543 8.93506 23.4486 8.93506C22.0328 8.93506 20.5934 8.93506 19.1776 8.93506C19.1541 9.05328 19.1305 9.14785 19.1069 9.26607C20.4755 9.26607 21.8677 9.26607 23.2363 9.26607C23.425 9.26607 23.5666 9.47887 23.4958 9.64438C23.3778 10.0936 23.2363 10.5192 23.1183 10.9684C23.0947 11.1339 22.9295 11.1576 22.7879 11.1576C21.3721 11.1576 19.9563 11.1576 18.5405 11.1576C18.4698 11.5832 18.3282 12.0088 18.2338 12.4344C18.1866 12.5526 18.045 12.5526 17.927 12.5762C17.0304 12.5762 16.1101 12.5762 15.2134 12.5762C15.0483 12.5762 14.9539 12.4344 14.9775 12.2925C15.0483 11.9378 15.1898 11.6068 15.237 11.2522C15.4494 10.4719 15.6854 9.66802 15.8977 8.88777C16.0157 8.34396 16.2045 7.84743 16.3461 7.30362ZM16.5584 7.32726C16.4641 7.7765 16.3225 8.20209 16.2281 8.65133C15.8977 9.88082 15.5674 11.1339 15.237 12.3634C16.1809 12.3634 17.1248 12.3634 18.0686 12.3634C18.1866 11.8906 18.3282 11.4177 18.4462 10.9448C19.9563 10.9448 21.4429 10.9448 22.9531 10.9448C23.0711 10.4719 23.1891 9.99904 23.3306 9.52616C21.8205 9.52616 20.3339 9.52616 18.8237 9.52616C18.8945 9.26607 18.9653 8.98234 19.0361 8.72226C20.5227 8.72226 22.0092 8.72226 23.5194 8.72226C23.6374 8.24938 23.7554 7.7765 23.897 7.30362C21.5373 7.30362 19.1776 7.30362 16.818 7.30362C16.7 7.30362 16.6292 7.32726 16.5584 7.32726Z" fill="#FDFDFD"/>
<path fill-rule="evenodd" clip-rule="evenodd" d="M16.5247 7.19481C16.4716 7.21821 16.4373 7.25547 16.43 7.31405L16.4293 7.31955L16.4279 7.3249C16.3679 7.55516 16.2996 7.77717 16.2322 7.99579C16.2194 8.03745 16.2066 8.07898 16.1939 8.12043C16.1143 8.38022 16.0386 8.63745 15.9804 8.90567L15.9799 8.90782L15.9793 8.90995C15.873 9.30049 15.7608 9.69686 15.6488 10.0928L15.6487 10.093C15.5371 10.4873 15.4257 10.8811 15.3201 11.269C15.2953 11.4512 15.2469 11.6262 15.1972 11.7961C15.1906 11.8189 15.1839 11.8417 15.1772 11.8643C15.1333 12.013 15.0906 12.1581 15.0607 12.3076C15.0451 12.4049 15.1083 12.4916 15.2134 12.4916H17.9188C17.9381 12.4879 17.9585 12.4846 17.9774 12.4816C17.9867 12.4801 17.9957 12.4786 18.0039 12.4772C18.0337 12.4722 18.0592 12.4671 18.0814 12.46C18.0931 12.4563 18.1031 12.4524 18.1118 12.448H15.1266L15.1552 12.3414C15.3204 11.7268 15.4855 11.1063 15.6507 10.4856C15.8157 9.86577 15.9807 9.24569 16.1457 8.63159C16.1933 8.40544 16.2526 8.18557 16.3112 7.96831L16.3115 7.96722C16.3706 7.74815 16.4289 7.53173 16.4756 7.30982L16.4897 7.2426H16.5584C16.5827 7.2426 16.607 7.23908 16.6427 7.23391C16.6477 7.23318 16.653 7.23242 16.6585 7.23163C16.7012 7.22551 16.753 7.21896 16.8179 7.21896H23.928C23.8955 7.18574 23.8543 7.16958 23.813 7.17475L23.8078 7.1754H16.7165L16.7096 7.17425C16.6522 7.16466 16.5808 7.17006 16.5247 7.19481ZM23.9805 7.31922L23.978 7.32785C23.8797 7.6559 23.7929 7.9841 23.7093 8.31308C23.7291 8.24152 23.7485 8.16954 23.768 8.09726L23.7683 8.09608C23.8271 7.87817 23.8866 7.65749 23.9582 7.44238L23.9608 7.43444L23.965 7.42717C23.9831 7.39544 23.9879 7.3572 23.9805 7.31922ZM23.5453 8.80684H19.1008C19.0712 8.91719 19.0415 9.03114 19.0117 9.14549L19.0116 9.14577C18.9858 9.24488 18.96 9.34428 18.934 9.44149H23.3939C23.3937 9.44121 23.3935 9.44092 23.3933 9.44064C23.3559 9.38558 23.2976 9.35065 23.2362 9.35065H19.0036L19.0238 9.24947C19.0358 9.18946 19.0478 9.13551 19.0595 9.08248L19.0596 9.0822C19.0714 9.02892 19.083 8.97656 19.0946 8.91845L19.1082 8.85039H23.4486C23.4834 8.85039 23.5194 8.83317 23.5453 8.80684ZM23.4241 9.50862L23.4116 9.55039C23.2889 9.96032 23.1839 10.3705 23.0809 10.7821C23.1276 10.6135 23.1768 10.4478 23.2257 10.2829L23.2259 10.2823C23.2908 10.0634 23.3553 9.84596 23.4139 9.62284L23.4155 9.6168L23.418 9.61106C23.4312 9.58019 23.4331 9.54438 23.4241 9.50862ZM22.9953 11.0294H18.5121C18.5084 11.0439 18.5047 11.0584 18.5009 11.0729H22.7879C22.8565 11.0729 22.9186 11.0667 22.9639 11.0473C22.9757 11.0422 22.9862 11.0364 22.9953 11.0294ZM18.3495 11.6379C18.346 11.6506 18.3425 11.6633 18.3391 11.676L18.3389 11.6765C18.274 11.9131 18.2094 12.1486 18.1507 12.3839L18.1397 12.4278C18.1451 12.4219 18.1494 12.4154 18.1528 12.4082C18.1907 12.2387 18.2359 12.0689 18.2805 11.901C18.2918 11.8587 18.303 11.8165 18.3141 11.7744C18.3261 11.7288 18.338 11.6833 18.3495 11.6379ZM16.7302 7.00616C16.6473 6.99366 16.5451 7.00084 16.4564 7.03995C16.3634 7.08095 16.2808 7.1601 16.2628 7.28723C16.2042 7.51178 16.1376 7.72809 16.0707 7.94511C16.0578 7.98699 16.0449 8.02889 16.0321 8.07088C15.9525 8.33057 15.8752 8.59282 15.8154 8.86762C15.7096 9.25658 15.5978 9.65149 15.4859 10.0469L15.4858 10.0471C15.3738 10.443 15.2616 10.8394 15.1553 11.2299L15.1538 11.2354L15.1531 11.241C15.1304 11.4113 15.0849 11.5773 15.0348 11.7485C15.0283 11.7708 15.0217 11.7932 15.015 11.8158C14.9712 11.9644 14.9259 12.1179 14.8944 12.2759L14.8941 12.2772L14.8939 12.2786C14.863 12.4645 14.9886 12.6608 15.2134 12.6608H17.9354L17.9436 12.6592C17.9621 12.6554 17.9803 12.6525 18.0002 12.6493C18.0103 12.6477 18.0209 12.646 18.0321 12.6441C18.0636 12.6388 18.0986 12.6321 18.1324 12.6214C18.2016 12.5995 18.2757 12.5574 18.3123 12.4657L18.3149 12.4593L18.3163 12.4527C18.3537 12.2843 18.3984 12.1162 18.4437 11.9462C18.455 11.9034 18.4664 11.8605 18.4778 11.8175C18.5278 11.6275 18.5761 11.4353 18.6116 11.2422H22.7879C22.8608 11.2422 22.9521 11.2365 23.0307 11.2028C23.114 11.167 23.1833 11.0989 23.2012 10.9855C23.2595 10.7639 23.3236 10.5479 23.3881 10.3304L23.3883 10.3298C23.4525 10.1133 23.5172 9.89536 23.5761 9.67141C23.6216 9.55845 23.5949 9.43635 23.5333 9.3456C23.4704 9.25288 23.3635 9.18141 23.2362 9.18141H19.2111C19.2157 9.16043 19.2202 9.13971 19.2248 9.11884L19.2249 9.11856C19.232 9.08631 19.2392 9.05372 19.2465 9.01964H23.4486C23.5797 9.01964 23.7076 8.9248 23.7422 8.79341C23.8133 8.57919 23.8726 8.35948 23.9311 8.14252L23.9314 8.14134C23.9898 7.92475 24.0475 7.71089 24.1163 7.50309C24.1767 7.38995 24.1573 7.25995 24.0988 7.16472C24.0396 7.06837 23.9303 6.99205 23.7977 7.00616H16.7302ZM16.6278 7.40688C16.5826 7.612 16.5286 7.81219 16.4752 8.0102L16.4749 8.01129C16.4158 8.23036 16.3574 8.44679 16.3108 8.66869L16.3103 8.67098L16.3097 8.67325C16.1446 9.28788 15.9794 9.90843 15.8143 10.5291C15.6586 11.1139 15.503 11.6988 15.3473 12.2788H18.0026C18.0574 12.0628 18.1166 11.847 18.1756 11.6321L18.1757 11.6317C18.2407 11.3951 18.3053 11.1596 18.364 10.9243L18.38 10.8601H22.8869C22.9906 10.4449 23.0955 10.028 23.2173 9.61074H18.7129L18.742 9.50389C18.7772 9.37438 18.8125 9.23889 18.8479 9.10285L18.848 9.10258C18.8833 8.9668 18.9188 8.83048 18.9544 8.7L18.9713 8.6376H23.4533C23.5569 8.22233 23.6618 7.80543 23.7836 7.3882H16.8179C16.7649 7.3882 16.7223 7.39347 16.6824 7.39917C16.6776 7.39986 16.6727 7.40058 16.6677 7.40132C16.6548 7.40321 16.6414 7.40517 16.6278 7.40688Z" fill="white"/>
<path d="M24.4394 7.18538C24.5338 7.11445 24.6518 7.06716 24.7698 7.09081C25.6429 7.09081 26.5159 7.09081 27.389 7.09081C27.5542 7.06716 27.6958 7.25631 27.6486 7.42182C27.5778 7.75284 27.4598 8.08386 27.389 8.41487C27.1766 9.17148 27.0115 9.95173 26.7755 10.7083C28.0025 10.7083 29.2059 10.7083 30.433 10.7083C30.5745 10.6847 30.6453 10.8266 30.6925 10.9448C30.6689 11.1339 30.5273 11.2285 30.4094 11.3467C30.0554 11.6541 29.7015 11.9851 29.3475 12.2925C29.1823 12.4107 29.0408 12.6471 28.8048 12.5999C26.9879 12.5999 25.1709 12.5999 23.3776 12.5999C23.236 12.5999 23.0708 12.5289 23.0944 12.3634C23.1888 11.8669 23.3304 11.3704 23.472 10.8738C23.59 10.4246 23.7079 9.97537 23.8495 9.52614C23.8967 9.19512 24.0147 8.86411 24.1091 8.53309C24.2035 8.08386 24.3215 7.63462 24.4394 7.18538ZM24.6282 7.3036C24.1799 8.98233 23.7315 10.6847 23.2832 12.3634C25.1001 12.3634 26.9171 12.3634 28.734 12.3634C28.8048 12.3634 28.8992 12.3634 28.9464 12.2925C29.4419 11.8432 29.961 11.394 30.4802 10.9448C29.1352 10.9448 27.8137 10.9448 26.4687 10.9448C26.7991 9.73893 27.1294 8.50945 27.4362 7.3036C26.5159 7.3036 25.5721 7.3036 24.6282 7.3036Z" fill="#FDFDFD"/>
<path fill-rule="evenodd" clip-rule="evenodd" d="M24.5137 7.23652C24.3982 7.67613 24.2839 8.11349 24.1921 8.5505L24.1915 8.55343L24.1906 8.5563C24.1661 8.64224 24.1405 8.72699 24.115 8.8109C24.0404 9.05745 23.9679 9.29681 23.9335 9.53809L23.9325 9.54496L23.9304 9.55158C23.7895 9.99854 23.6721 10.4458 23.554 10.8953L23.5535 10.8971C23.412 11.3935 23.2717 11.8857 23.1781 12.3771C23.176 12.3938 23.1768 12.4082 23.1805 12.4208L23.2016 12.3416C23.4258 11.5023 23.6499 10.6571 23.8741 9.81183C24.0982 8.96658 24.3224 8.12121 24.5466 7.28178L24.5634 7.21899H27.5159C27.4818 7.18444 27.4402 7.16899 27.4012 7.17458L27.3952 7.17544H24.7616L24.7533 7.17379C24.6759 7.15827 24.5915 7.18423 24.5137 7.23652ZM27.5383 7.24625L27.5184 7.32447C27.2205 8.49537 26.9005 9.68839 26.5798 10.8602H30.5577C30.5503 10.8487 30.5427 10.8383 30.5346 10.829C30.5067 10.7972 30.4811 10.7861 30.4471 10.7918L30.4401 10.793H26.6606L26.6949 10.6832C26.8341 10.2369 26.9473 9.78711 27.0609 9.33621C27.1398 9.02263 27.2189 8.70849 27.307 8.39456C27.3429 8.22715 27.3905 8.06025 27.4372 7.89653L27.4376 7.89515C27.4849 7.72915 27.5313 7.56639 27.566 7.40413L27.5666 7.40136L27.5674 7.39863C27.5815 7.34901 27.5697 7.29206 27.5383 7.24625ZM30.6034 10.9502L30.5357 11.0088C30.0188 11.4561 29.5029 11.9026 29.0102 12.349C28.971 12.4017 28.9166 12.4258 28.8683 12.437C28.8204 12.4481 28.7709 12.4481 28.7372 12.448L23.1941 12.448C23.2014 12.4577 23.2108 12.4662 23.2221 12.4739C23.2602 12.5 23.3187 12.5152 23.3778 12.5152H28.8134L28.8216 12.5169C28.904 12.5334 28.973 12.5034 29.0502 12.442C29.0859 12.4137 29.1201 12.3812 29.157 12.3462C29.1607 12.3427 29.1645 12.3391 29.1682 12.3356C29.2071 12.2987 29.2497 12.259 29.2951 12.2261C29.4704 12.0738 29.6458 11.9156 29.8219 11.7568L29.8222 11.7565C29.9983 11.5978 30.175 11.4384 30.3518 11.2848C30.3739 11.2628 30.3971 11.2412 30.4189 11.2208C30.4269 11.2134 30.4347 11.2061 30.4422 11.199C30.472 11.1711 30.4987 11.1448 30.5222 11.1174C30.5636 11.0689 30.5934 11.0185 30.6055 10.955C30.6048 10.9534 30.6041 10.9518 30.6034 10.9502ZM24.7779 7.00619C24.6303 6.98001 24.4914 7.04058 24.3888 7.11774L24.3652 7.13543L24.3575 7.16484C24.24 7.61243 24.1218 8.06241 24.0271 8.51276C24.0046 8.59149 23.9804 8.67131 23.956 8.75191C23.8809 8.99945 23.8037 9.25428 23.7669 9.50728C23.6256 9.95631 23.5078 10.405 23.3905 10.8515L23.3902 10.8526C23.249 11.3478 23.1066 11.8474 23.0115 12.3476L23.0111 12.3495L23.0108 12.3515C22.9939 12.4704 23.0476 12.5595 23.1264 12.6135C23.2004 12.6642 23.2953 12.6845 23.3778 12.6845H28.797C28.9465 12.7112 29.0634 12.6477 29.1555 12.5745C29.1973 12.5413 29.237 12.5036 29.273 12.4694C29.2769 12.4657 29.2808 12.4621 29.2846 12.4585C29.3251 12.4201 29.361 12.387 29.3969 12.3613L29.4002 12.359L29.4032 12.3564C29.5808 12.2022 29.7582 12.0421 29.935 11.8827L29.9353 11.8825C30.1124 11.7228 30.2887 11.5637 30.465 11.4106L30.4673 11.4086L30.4694 11.4065C30.4898 11.3861 30.5104 11.3669 30.5322 11.3466C30.5407 11.3387 30.5493 11.3306 30.5582 11.3223C30.589 11.2934 30.6212 11.262 30.6508 11.2274C30.7112 11.1568 30.7622 11.071 30.7767 10.9553L30.7794 10.9336L30.7713 10.9134C30.7475 10.8538 30.7136 10.7768 30.662 10.7177C30.6086 10.6565 30.5305 10.6092 30.4267 10.6237H26.8902C27.015 10.2106 27.1217 9.78764 27.2274 9.36824C27.3065 9.05419 27.3852 8.74215 27.4706 8.43775L27.4714 8.43518L27.4719 8.43258C27.5066 8.27032 27.553 8.10756 27.6003 7.94156L27.6007 7.94016C27.6474 7.77643 27.695 7.60952 27.7309 7.44211C27.7616 7.33051 27.7289 7.21582 27.6656 7.13371C27.6028 7.0523 27.5008 6.9921 27.3837 7.00619H24.7779ZM24.6934 7.38823C24.4748 8.20685 24.2563 9.03096 24.0377 9.85515L24.0376 9.85532C23.823 10.6648 23.6083 11.4744 23.3936 12.2788H28.7342C28.7712 12.2788 28.8028 12.2784 28.8301 12.2721C28.8557 12.2662 28.8684 12.2571 28.8761 12.2456L28.8819 12.2369L28.8897 12.2298C29.3314 11.8294 29.7916 11.4291 30.2533 11.0294H26.358L26.3873 10.9224C26.708 9.75197 27.0285 8.55954 27.3275 7.38823H24.6934Z" fill="white"/>
<path d="M10.14 10.9448C10.9187 10.2827 11.6738 9.59707 12.4525 8.95868C12.2637 9.62071 12.0985 10.2827 11.9098 10.9448C11.3198 10.9448 10.7299 10.9448 10.14 10.9448Z" fill="#FDFDFD"/>
<path fill-rule="evenodd" clip-rule="evenodd" d="M12.6081 8.72174L12.5339 8.9819C12.4398 9.31213 12.3515 9.64247 12.2629 9.9736L12.2628 9.97396C12.1744 10.3047 12.0858 10.6363 11.9912 10.968L11.9737 11.0294H9.90991L10.0853 10.8803C10.3906 10.6207 10.6935 10.3564 10.9962 10.0923C11.4619 9.68598 11.9269 9.28023 12.3989 8.89326L12.6081 8.72174ZM10.3695 10.8602H11.8459C11.9336 10.5504 12.0164 10.2405 12.0994 9.92989L12.0995 9.92958C12.1648 9.68554 12.2301 9.44107 12.2979 9.19645C11.899 9.52915 11.5061 9.87196 11.1112 10.2166C10.8654 10.4311 10.6188 10.6463 10.3695 10.8602Z" fill="white"/>
<path d="M6.43525 12.86C6.50604 12.7654 6.62403 12.7654 6.71842 12.7654C13.9626 12.7654 21.2067 12.7654 28.4744 12.7654C28.5688 12.7654 28.6632 12.789 28.7576 12.8363C28.8284 12.9309 28.8048 13.0491 28.7812 13.1673C28.616 14.0185 28.4744 14.8697 28.1913 15.6972C27.9553 16.3593 27.7665 17.0449 27.4598 17.6833C27.3182 17.9907 27.1766 18.2981 27.0586 18.6054C26.6575 19.3384 26.2564 20.095 25.7608 20.7807C25.5485 21.1354 25.2889 21.4427 25.0293 21.7737C24.5338 22.4358 23.9439 23.0505 23.354 23.6416C23.0472 23.9017 22.7877 24.2091 22.4573 24.4455C22.1506 24.682 21.891 24.9657 21.5606 25.1785C20.9707 25.675 20.2864 26.077 19.6493 26.5262C19.1538 26.7626 18.7055 27.0936 18.2099 27.3301C17.856 27.4719 17.5256 27.6611 17.1953 27.8266C16.6762 28.0867 16.1334 28.2286 15.5907 28.465C15.0716 28.6778 14.5289 28.8433 13.9626 28.9142C13.0659 28.7251 12.24 28.2995 11.4141 27.8975C11.1074 27.732 10.8242 27.5192 10.5175 27.3537C9.92755 26.9518 9.36123 26.5262 8.84211 26.0297C8.37017 25.5804 7.94544 25.0603 7.5443 24.5401C7.21394 24.0436 6.88359 23.547 6.64763 23.0032C6.43526 22.5776 6.27008 22.1284 6.1049 21.6792C6.08131 21.6082 6.1285 21.5373 6.1285 21.4664C6.34087 21.3245 6.62403 21.3718 6.86 21.3482C7.04877 21.3009 7.23754 21.2536 7.42631 21.3482C7.56789 21.5137 7.61509 21.7265 7.68588 21.9156C7.85105 22.4121 8.13421 22.8614 8.41737 23.287C8.65334 23.7126 8.98368 24.0909 9.29044 24.4692C9.59719 24.8002 9.90395 25.1075 10.2343 25.3913C10.3051 25.4386 10.3523 25.5095 10.3995 25.5804L10.4231 25.6041C10.4467 25.6041 10.4939 25.6277 10.5175 25.6514C10.659 25.8169 10.8714 25.9114 11.0366 26.0297C11.249 26.1715 11.4613 26.337 11.6973 26.4316C11.1782 26.1006 10.659 25.7459 10.1871 25.3203C9.03088 24.3037 8.13421 23.0032 7.63868 21.5373C7.61508 21.3482 7.80386 21.3009 7.94544 21.3009C8.72413 21.2772 9.47921 21.3245 10.2579 21.3245C10.4703 21.3954 10.7062 21.3482 10.9186 21.3954C12.004 21.5373 13.0895 21.7265 14.1513 22.0102C14.5289 22.0338 14.8828 22.223 15.2604 22.3176C15.5907 22.4358 15.9211 22.554 16.2514 22.6722C16.8885 22.8614 17.4548 23.1924 18.0448 23.4761C18.3279 23.5707 18.5403 23.7598 18.7999 23.8781C19.0594 24.0436 19.3426 24.2091 19.6021 24.3746C19.7437 24.4455 19.7437 24.6347 19.6729 24.7529C19.7437 24.6583 19.8381 24.5874 19.9325 24.5401C20.0977 24.5401 19.8853 24.4692 19.8381 24.4455C19.4134 24.0199 18.9414 23.6889 18.4459 23.3106C17.4784 22.6486 16.4638 22.0102 15.4019 21.5373C14.9064 21.2772 14.4109 21.0408 13.8918 20.8753C13.2075 20.5915 12.4996 20.3315 11.7681 20.166C11.1782 20.0004 10.5882 19.8586 9.97474 19.7404C9.78597 19.7167 9.76237 19.433 9.88035 19.3384C10.0927 19.1493 10.3523 19.1256 10.6118 19.031C11.4377 18.771 12.3108 18.7237 13.1603 18.8182C13.585 18.8892 14.0334 18.9128 14.4345 19.0783C14.0098 18.4399 13.703 17.707 13.703 16.9504C13.6794 16.4066 13.8446 15.8391 14.1985 15.4135C14.3165 15.2953 14.4345 15.1771 14.5289 15.0352C14.93 14.7515 15.3548 14.4677 15.8503 14.3495C16.8649 14.0422 18.0448 14.184 18.8942 14.8461C19.3426 15.2007 19.6729 15.7209 19.8145 16.2883C20.0033 16.4775 20.0033 16.7612 20.0033 17.0213C19.9797 17.2105 19.7437 17.1632 19.6021 17.2341C19.5785 17.305 19.5785 17.376 19.5549 17.4232C19.6021 17.5651 19.6493 17.6833 19.7201 17.8252C19.9797 17.8016 20.2156 17.8725 20.4752 17.8961C20.6168 17.9907 20.7584 18.1326 20.782 18.2981C20.8528 18.7237 20.8999 19.1493 20.9707 19.5749C20.9943 19.7404 20.9471 19.9768 20.7348 19.9768C20.3336 19.9059 19.9089 19.8349 19.5078 19.7167C19.437 19.8113 19.3426 19.9059 19.2246 19.9532C19.6729 19.9532 20.1213 19.9295 20.5696 20.0004C21.2303 20.095 21.891 20.2842 22.4337 20.6861C22.6933 20.8989 22.9057 21.159 23 21.4664C23.0472 21.5609 23 21.6555 22.9528 21.7265C22.4101 22.4121 21.7494 23.0032 21.0887 23.5943C21.1359 23.5943 21.2067 23.5707 21.2539 23.5234C21.3955 23.3579 21.5607 23.216 21.7494 23.0742C22.1978 22.6249 22.6697 22.1757 23.0944 21.7028C24.2035 20.4733 25.1237 19.102 25.8316 17.6124C26.0912 16.9977 26.3979 16.3829 26.5867 15.7209C26.7283 15.1771 26.9171 14.6333 27.0586 14.0894C20.5224 14.0894 13.9862 14.0894 7.44991 14.0894C7.26114 14.7042 7.14315 15.3662 7.04877 16.0046C7.02517 16.1465 6.95438 16.2883 6.7892 16.2647C6.48245 16.2647 6.1521 16.312 5.84534 16.3829C5.65657 16.4066 5.60938 16.1938 5.60938 16.0519C5.68016 15.4608 5.79815 14.8697 5.89254 14.3022C6.1521 13.8766 6.27008 13.3565 6.43525 12.86ZM6.60043 12.9782C6.31727 14.0422 6.05771 15.1298 5.91613 16.2174C5.98692 16.1938 6.08131 16.1938 6.1521 16.1701C6.41166 16.1465 6.64762 16.1228 6.90719 16.0992C7.00157 15.3662 7.16675 14.6569 7.33193 13.9476C8.46456 13.9239 9.5972 13.9476 10.7298 13.9476C16.2986 13.9476 21.8438 13.9476 27.4126 13.9476C27.2238 14.7988 26.9643 15.6499 26.6575 16.4538C25.5957 19.3148 23.7315 21.8447 21.3955 23.7835C19.3662 25.4622 17.0065 26.739 14.5053 27.5429C14.2929 27.5902 14.0569 27.732 13.8446 27.6375C12.4524 27.1646 11.131 26.4553 10.0219 25.4622C8.81851 24.3982 7.87465 23.0505 7.33193 21.5609C7.00158 21.5846 6.67122 21.6319 6.36447 21.6555C6.67122 22.6249 7.11956 23.5234 7.70947 24.3509C8.79492 25.8878 10.3051 27.0936 11.9804 27.9212C12.6176 28.2286 13.2783 28.5123 13.9626 28.7014C14.6233 28.5596 15.284 28.3231 15.9211 28.1103C19.6257 26.6917 23 24.2564 25.3125 21.0171C27.0114 18.6527 28.1205 15.8864 28.5688 13.0018C21.2539 12.9782 13.939 12.9782 6.60043 12.9782ZM14.7412 15.2716C14.2457 15.6972 13.9626 16.3356 13.9862 16.9977C14.0097 17.7779 14.3401 18.5345 14.7648 19.1965C14.8828 19.1965 15.0008 19.1729 15.1188 19.1729C15.1424 19.2911 15.1424 19.4093 15.166 19.5276C14.5761 19.3384 13.9626 19.1965 13.349 19.1256C12.24 18.9838 11.0602 19.0547 10.0691 19.5985C11.9569 19.9295 13.821 20.5443 15.5435 21.3482C17.1481 22.1284 18.7055 23.0742 20.0269 24.3037C21.0179 23.547 21.9618 22.7195 22.7877 21.7737C22.9293 21.6555 22.8113 21.4664 22.7405 21.3482C22.3865 20.8043 21.773 20.5443 21.1595 20.426C20.2156 20.2132 19.2482 20.2369 18.3043 20.2842C18.4695 20.0241 18.7763 19.9295 19.0594 19.8822C19.2246 19.8586 19.3898 19.7404 19.4606 19.5749C19.9089 19.6694 20.3808 19.7876 20.8292 19.8349C20.8056 19.6458 20.782 19.4803 20.7348 19.2911C20.6876 19.0074 20.664 18.7 20.6168 18.4163C20.5932 18.3217 20.5224 18.2271 20.428 18.2035C20.1685 18.1326 19.8853 18.1562 19.6257 18.1089C19.5313 17.9434 19.4841 17.7543 19.4134 17.5888C19.3662 17.4942 19.437 17.3996 19.4606 17.305C19.201 17.2814 18.9178 17.3287 18.6819 17.4469C18.8235 17.305 18.9886 17.1632 19.1774 17.1395C19.4134 17.0922 19.6493 17.1159 19.8617 17.0922C19.8617 16.974 19.8381 16.8321 19.8381 16.7139C19.7437 16.6194 19.6493 16.5248 19.6257 16.3829C19.5549 16.0519 19.3898 15.7445 19.1774 15.4844C18.7527 14.9643 18.092 14.7042 17.4312 14.6096C16.4874 14.4205 15.4727 14.6333 14.7412 15.2716ZM8.44096 22.7195C9.55 24.8238 11.5321 26.3843 13.7738 27.1173C13.9154 27.1646 14.0569 27.2355 14.1985 27.1646C16.0155 26.5735 17.7852 25.8169 19.3898 24.7765C19.4606 24.7292 19.5313 24.682 19.5549 24.6347C17.62 23.3106 15.3548 22.4831 13.0895 22.0102C11.3905 21.6792 9.66799 21.49 7.92184 21.5609C8.03982 21.9393 8.25219 22.3412 8.44096 22.7195Z" fill="#FDFDFD"/>
<path fill-rule="evenodd" clip-rule="evenodd" d="M6.51072 12.9014C6.47409 13.0122 6.43936 13.1257 6.40437 13.2401C6.28911 13.6168 6.17105 14.0027 5.97337 14.3322C5.94633 14.4942 5.91756 14.6573 5.88863 14.8214C5.81675 15.229 5.74388 15.6423 5.69405 16.0568C5.69459 16.1201 5.70585 16.1909 5.73165 16.2404C5.74437 16.2649 5.75856 16.2802 5.77284 16.2889C5.78365 16.2955 5.79834 16.3006 5.82006 16.3001L5.83225 16.2065C5.97455 15.1134 6.23525 14.0215 6.51868 12.9565L6.53541 12.8936H6.60087C13.9392 12.8936 21.2542 12.8936 28.5691 12.9173L28.6676 12.9176L28.6525 13.0149C28.2022 15.912 27.0883 18.6908 25.3814 21.0664C23.0581 24.3207 19.6696 26.7656 15.9514 28.1894L15.9496 28.1901L15.9479 28.1907C15.8578 28.2208 15.767 28.2514 15.6757 28.2822C15.1241 28.4684 14.5522 28.6614 13.9804 28.7842L13.9601 28.7886L13.94 28.7831C13.2486 28.5919 12.5827 28.3057 11.9437 27.9975L11.943 27.9971C10.2569 27.1643 8.73517 25.9498 7.64051 24.4C7.0455 23.5653 6.59322 22.6589 6.28382 21.6811L6.25163 21.5794L6.35799 21.5712C6.5011 21.5602 6.64957 21.5439 6.80246 21.5272L6.83018 21.5242C6.99231 21.5064 7.15895 21.4885 7.32591 21.4766L7.3896 21.472L7.41146 21.532C7.94906 23.0076 8.8845 24.3436 10.078 25.3989L10.0784 25.3992C10.1551 25.4679 10.2328 25.5352 10.3115 25.6011C10.2705 25.5404 10.235 25.4936 10.1873 25.4617L10.1831 25.4589L10.1792 25.4555C9.8456 25.169 9.53647 24.8592 9.2284 24.5267L9.2265 24.5247L9.22474 24.5225C9.17919 24.4663 9.1329 24.4099 9.08629 24.3531C8.82281 24.032 8.54939 23.6987 8.34506 23.3311C8.06274 22.9066 7.7749 22.4505 7.6061 21.9439C7.59004 21.9008 7.57517 21.8567 7.56068 21.8137C7.55885 21.8083 7.55703 21.8029 7.55522 21.7975C7.53863 21.7484 7.52225 21.7007 7.50391 21.654C7.46949 21.5665 7.42941 21.4862 7.37313 21.4166C7.22159 21.3478 7.06805 21.3833 6.88059 21.4303L6.8746 21.4318L6.86846 21.4324C6.80557 21.4387 6.74039 21.4402 6.67753 21.4413C6.67158 21.4414 6.66565 21.4415 6.65974 21.4416C6.60213 21.4426 6.54637 21.4436 6.49133 21.4474C6.38455 21.4549 6.28949 21.4729 6.20831 21.517C6.20427 21.5401 6.19848 21.5615 6.19402 21.5781C6.19247 21.5838 6.19109 21.5889 6.18999 21.5933C6.1819 21.6257 6.18159 21.6407 6.18493 21.6516C6.35019 22.1011 6.51369 22.5453 6.72337 22.9655L6.72438 22.9675L6.72529 22.9696C6.95736 23.5045 7.28262 23.994 7.61314 24.4908C8.0131 25.0094 8.43409 25.5245 8.90048 25.9684L8.90062 25.9686C9.41403 26.4596 9.97493 26.8815 10.5615 27.2814C10.7163 27.3652 10.8648 27.4604 11.0102 27.5536L11.0115 27.5545C11.1589 27.649 11.3033 27.7415 11.4528 27.8223C11.5181 27.8541 11.5834 27.886 11.6486 27.9179C12.4062 28.2883 13.1575 28.6556 13.9662 28.8285C14.5177 28.7579 15.048 28.596 15.5578 28.3871C15.7921 28.2851 16.0266 28.2004 16.2563 28.1174C16.2953 28.1033 16.3342 28.0893 16.373 28.0752C16.6411 27.9778 16.9026 27.8787 17.1574 27.751C17.2486 27.7053 17.341 27.6572 17.4345 27.6084C17.6729 27.4841 17.9193 27.3557 18.1759 27.2526C18.4185 27.1367 18.6503 26.9974 18.8861 26.8557L18.8878 26.8546C19.1206 26.7147 19.3574 26.5723 19.6064 26.453C19.8212 26.3017 20.039 26.1571 20.2556 26.0133C20.6883 25.726 21.1164 25.4418 21.5062 25.1138L21.5103 25.1103L21.5148 25.1074C21.6744 25.0046 21.818 24.884 21.962 24.7574C21.9903 24.7325 22.0186 24.7073 22.0472 24.682C22.1625 24.5797 22.2804 24.4751 22.4057 24.3785L22.4069 24.3776L22.4081 24.3768C22.568 24.2623 22.7119 24.1299 22.8559 23.9915C22.8842 23.9642 22.9126 23.9367 22.9412 23.909C23.0557 23.798 23.1725 23.6848 23.2966 23.5794C23.8853 22.9894 24.4706 22.3791 24.9616 21.7231L24.9628 21.7216C25.0106 21.6606 25.0582 21.6007 25.1053 21.5414C25.3163 21.2757 25.5176 21.0224 25.6883 20.7373L25.6901 20.7341L25.6923 20.7312C26.1407 20.1107 26.5115 19.4314 26.8783 18.7592C26.9128 18.696 26.9472 18.6329 26.9817 18.5699C27.1003 18.2616 27.2421 17.9539 27.3825 17.6491L27.383 17.648L27.3835 17.6467C27.5984 17.1997 27.7538 16.7318 27.9106 16.2596C27.9758 16.0632 28.0413 15.8661 28.1114 15.6694C28.353 14.9632 28.4906 14.24 28.6299 13.5074C28.6525 13.3889 28.6751 13.2702 28.6982 13.1513L28.6982 13.1508C28.7104 13.0899 28.7202 13.0393 28.7202 12.993C28.7202 12.9568 28.7141 12.9276 28.6999 12.9025C28.6229 12.8669 28.5479 12.8501 28.4745 12.8501H6.71844C6.621 12.8501 6.55295 12.8547 6.51072 12.9014ZM10.4561 25.7098C10.4545 25.7084 10.4519 25.7064 10.4484 25.7039C10.4436 25.7006 10.438 25.6974 10.4324 25.6946C10.4267 25.6917 10.4219 25.6898 10.4188 25.6888C10.4187 25.6888 10.4186 25.6888 10.4186 25.6887H10.4176C10.4423 25.7088 10.467 25.7288 10.4919 25.7486C10.4796 25.7361 10.4677 25.7232 10.4561 25.7098ZM10.747 25.9452C11.6934 26.65 12.7592 27.1795 13.8718 27.5574L13.8755 27.5586L13.879 27.5602C13.9587 27.5957 14.0476 27.5895 14.1534 27.5616C14.201 27.549 14.2487 27.5331 14.2991 27.5162C14.3045 27.5144 14.31 27.5125 14.3155 27.5107C14.3694 27.4927 14.4264 27.4741 14.483 27.4612C16.9729 26.6605 19.3217 25.3893 21.3415 23.7184C23.6669 21.7884 25.5219 19.2705 26.5782 16.4245L26.5785 16.4237C26.8715 15.6559 27.1212 14.8448 27.3068 14.0323H27.161L27.1406 14.1108C27.0694 14.3844 26.9864 14.6576 26.9039 14.9289L26.9037 14.9298C26.821 15.202 26.7389 15.4723 26.6686 15.7423L26.6681 15.7441C26.5255 16.2444 26.3154 16.7199 26.1111 17.1824C26.0424 17.338 25.9743 17.4922 25.9096 17.6454L25.9089 17.6471L25.9081 17.6488C25.1966 19.1458 24.2718 20.524 23.1574 21.7594C22.8367 22.1165 22.4886 22.4608 22.146 22.7996C22.0328 22.9116 21.9202 23.0229 21.8093 23.134L21.8051 23.1383L21.8003 23.1419C21.614 23.2818 21.4542 23.4195 21.3182 23.5785L21.3161 23.5809L21.3138 23.5832C21.2497 23.6474 21.1569 23.679 21.0887 23.679H20.9445C20.6609 23.9168 20.3716 24.147 20.0782 24.371L20.0215 24.4143L19.9693 24.3657C18.6562 23.144 17.107 22.2026 15.5071 21.4246C13.9829 20.7133 12.348 20.1509 10.6847 19.8031C11.0566 19.8876 11.4228 19.9813 11.7889 20.084C12.5253 20.2508 13.2364 20.5121 13.9209 20.7958C14.445 20.9632 14.9437 21.2014 15.4389 21.4612C16.5069 21.9371 17.5256 22.5784 18.4937 23.2408L18.4955 23.2421L18.4973 23.2434C18.5879 23.3126 18.678 23.3804 18.7675 23.4477C19.1599 23.7429 19.5394 24.0284 19.8872 24.375C19.8934 24.3777 19.9014 24.3809 19.9111 24.385C19.9164 24.3872 19.9222 24.3896 19.9285 24.3922C19.9521 24.402 19.9817 24.4146 20.0051 24.4273C20.0162 24.4332 20.0309 24.4418 20.0435 24.4529C20.0496 24.4582 20.0598 24.4681 20.0677 24.4826C20.0762 24.4983 20.0852 24.5262 20.0735 24.5579C20.0627 24.5872 20.0407 24.602 20.0286 24.6083C20.0159 24.615 20.0033 24.6182 19.9944 24.62C19.9822 24.6225 19.9684 24.6238 19.9539 24.6244C19.8748 24.6666 19.7982 24.7268 19.7407 24.8037L19.6046 24.7123C19.5859 24.7355 19.5635 24.7553 19.543 24.7717C19.5106 24.7976 19.4727 24.823 19.4385 24.8458L19.4368 24.847L19.4358 24.8476C17.8249 25.892 16.05 26.6509 14.2304 27.2433C14.1391 27.287 14.0495 27.285 13.9689 27.2682C13.9122 27.2563 13.8527 27.235 13.8003 27.2163C13.7815 27.2096 13.7637 27.2032 13.7472 27.1977C11.4868 26.4585 9.48632 24.8845 8.36613 22.759L8.36525 22.7574C8.34199 22.7107 8.31829 22.6636 8.29436 22.616C8.12587 22.281 7.94665 21.9247 7.84108 21.5862L7.80825 21.4809L7.91843 21.4765C9.67289 21.4052 11.4023 21.5953 13.1057 21.9272L13.1068 21.9274C15.3798 22.4019 17.6563 23.2329 19.6028 24.5649L19.6348 24.5868C19.635 24.5766 19.6345 24.5664 19.6332 24.5565C19.6271 24.5072 19.6045 24.4704 19.5643 24.4503L19.5604 24.4483L19.5567 24.446C19.4277 24.3638 19.2928 24.2815 19.157 24.1986L19.1566 24.1984C19.0229 24.1168 18.8883 24.0348 18.7593 23.9526C18.6472 23.901 18.543 23.8367 18.4436 23.7753C18.4246 23.7635 18.4058 23.7519 18.3871 23.7405C18.2669 23.6671 18.1499 23.6005 18.018 23.5564L18.0129 23.5547L18.0081 23.5524C17.8572 23.4798 17.709 23.4049 17.5618 23.3304C17.1256 23.1096 16.6972 22.8929 16.2274 22.7534L16.2251 22.7527L15.2358 22.3987C15.0926 22.3625 14.9515 22.3129 14.8155 22.265C14.7693 22.2488 14.7236 22.2327 14.6787 22.2175C14.4972 22.1559 14.3231 22.1058 14.1461 22.0947L14.1377 22.0942L14.1295 22.092C13.0724 21.8095 11.9908 21.621 10.9077 21.4794L10.9039 21.4789L10.9002 21.4781C10.8144 21.459 10.724 21.4568 10.6232 21.4544C10.611 21.4541 10.5986 21.4538 10.586 21.4535C10.4782 21.4506 10.3598 21.4451 10.2446 21.4092C9.93216 21.409 9.62663 21.4014 9.32301 21.3939C8.86604 21.3826 8.4134 21.3714 7.94804 21.3855L7.94675 21.3855H7.94547C7.88104 21.3855 7.81562 21.3968 7.77219 21.4216C7.75174 21.4334 7.7389 21.4465 7.7314 21.4605C7.72478 21.4729 7.71955 21.4911 7.72187 21.5191C8.21296 22.9665 9.09957 24.2514 10.243 25.2568L10.2438 25.2576C10.7105 25.6784 11.2249 26.0301 11.7428 26.3603L11.6658 26.5102C11.4704 26.4319 11.2889 26.3062 11.1201 26.1894C11.0757 26.1587 11.0322 26.1286 10.9896 26.1001L10.9885 26.0993L10.9874 26.0985C10.9372 26.0626 10.8853 26.0307 10.8298 25.9966C10.8031 25.9802 10.7756 25.9633 10.747 25.9452ZM7.5709 21.4048C7.57421 21.3966 7.57796 21.3885 7.58215 21.3807C7.60783 21.3327 7.64661 21.2985 7.6881 21.2748C7.76809 21.229 7.86717 21.2164 7.94414 21.2163C8.41127 21.2022 8.87423 21.2135 9.33617 21.2249C9.64357 21.2324 9.95051 21.2399 10.2579 21.2399H10.2717L10.2847 21.2443C10.3777 21.2754 10.4784 21.2813 10.5905 21.2843C10.6026 21.2846 10.6149 21.2849 10.6274 21.2852C10.7248 21.2874 10.8312 21.2899 10.9332 21.3121C12.017 21.4538 13.1024 21.6429 14.1652 21.9263C14.3626 21.9399 14.5514 21.9955 14.7331 22.0572C14.782 22.0738 14.8301 22.0907 14.8778 22.1075C15.013 22.1551 15.1447 22.2014 15.281 22.2355L15.285 22.2365L16.2778 22.5918C16.7628 22.7361 17.2098 22.9623 17.6488 23.1845C17.7919 23.257 17.9342 23.329 18.0767 23.3976C18.2258 23.4481 18.3549 23.5225 18.4753 23.5961C18.4954 23.6083 18.5152 23.6205 18.5347 23.6326C18.6358 23.695 18.7313 23.7539 18.835 23.8011L18.8404 23.8036L18.8454 23.8068C18.9743 23.889 19.1093 23.9713 19.2451 24.0541L19.2454 24.0543C19.2836 24.0776 19.3218 24.1009 19.36 24.1243C19.1395 23.9395 18.9088 23.7659 18.6693 23.5857C18.5795 23.5181 18.4885 23.4496 18.3963 23.3793C17.4308 22.7186 16.4217 22.0841 15.3675 21.6147L15.3651 21.6136L15.3626 21.6123C14.8686 21.353 14.3782 21.1192 13.8661 20.956L13.8627 20.9549L13.8594 20.9535C13.1769 20.6705 12.4741 20.4125 11.7494 20.2485L11.7473 20.2481L11.7452 20.2475C11.1582 20.0828 10.5714 19.9416 9.96124 19.824C9.81895 19.8047 9.74755 19.6874 9.72914 19.5804C9.71134 19.4769 9.73598 19.3473 9.8256 19.2739C9.94343 19.1695 10.0729 19.112 10.2016 19.0691C10.2571 19.0505 10.3137 19.0343 10.3689 19.0185C10.3775 19.016 10.386 19.0136 10.3945 19.0111C10.4585 18.9927 10.521 18.9742 10.5829 18.9516L10.5847 18.9509L10.5865 18.9504C11.4258 18.6861 12.311 18.6386 13.1697 18.7342L13.172 18.7345L13.1742 18.7348C13.279 18.7523 13.3854 18.7669 13.4936 18.7817L13.4994 18.7825C13.6054 18.797 13.713 18.8117 13.82 18.8294C13.9581 18.8521 14.0968 18.8799 14.2332 18.9192C13.8718 18.3224 13.6188 17.6493 13.6184 16.9523C13.5945 16.3906 13.7649 15.8026 14.1335 15.3595L14.1359 15.3565L14.1387 15.3538C14.2576 15.2346 14.3695 15.1221 14.4585 14.9884L14.4672 14.9753L14.48 14.9662C14.88 14.6832 15.316 14.3907 15.8282 14.2679C15.9541 14.2298 16.0825 14.1985 16.2125 14.1741H7.51274C7.33634 14.7658 7.22364 15.4006 7.13251 16.017L7.13228 16.0186C7.11938 16.0961 7.09227 16.1838 7.03748 16.2505C6.97961 16.3209 6.89404 16.3631 6.78365 16.3494C6.48651 16.3499 6.16489 16.3959 5.86443 16.4654L5.8602 16.4664L5.85588 16.4669C5.79161 16.475 5.73372 16.4632 5.68488 16.4335C5.63722 16.4045 5.60421 16.3621 5.58154 16.3186C5.53722 16.2335 5.52478 16.1293 5.52478 16.052V16.0469L5.52538 16.0419C5.57582 15.6207 5.6503 15.1983 5.72281 14.787C5.75249 14.6187 5.78185 14.4522 5.80909 14.2884L5.81178 14.2722L5.82032 14.2582C6.011 13.9456 6.12205 13.583 6.23758 13.2058C6.27527 13.0828 6.31343 12.9582 6.35499 12.8333L6.35932 12.8203L6.36754 12.8093C6.46411 12.6803 6.62159 12.6806 6.70908 12.6808C6.7123 12.6808 6.71542 12.6808 6.71844 12.6808H28.4745C28.5835 12.6808 28.6908 12.7082 28.7955 12.7607L28.8134 12.7697L28.8254 12.7857C28.8748 12.8518 28.8894 12.9246 28.8894 12.993C28.8894 13.0576 28.8762 13.1237 28.865 13.1802L28.8643 13.1835C28.8414 13.3013 28.819 13.4193 28.7965 13.5375C28.6573 14.2696 28.5173 15.0061 28.2714 15.7247L28.271 15.7257C28.2035 15.915 28.1395 16.1079 28.075 16.3021C27.9167 16.7784 27.756 17.2623 27.5364 17.7194C27.3947 18.0271 27.2544 18.3317 27.1377 18.6358L27.1356 18.6411L27.1329 18.6461C27.0974 18.711 27.0619 18.7761 27.0263 18.8414C26.6609 19.5109 26.2857 20.1985 25.8316 20.8274C25.655 21.1217 25.4461 21.3846 25.2354 21.6498C25.1891 21.708 25.1427 21.7664 25.0965 21.8253C24.5973 22.4922 24.0039 23.1102 23.4139 23.7015L23.4114 23.7039L23.4087 23.7062C23.2884 23.8083 23.1758 23.9174 23.0609 24.0288C23.0318 24.0569 23.0027 24.0852 22.9732 24.1135C22.8285 24.2526 22.6777 24.3917 22.5078 24.5135C22.3881 24.6059 22.2761 24.7052 22.1615 24.8068C22.1325 24.8326 22.1033 24.8585 22.0737 24.8845C21.9299 25.0109 21.7799 25.1374 21.6111 25.2467C21.2153 25.5793 20.7744 25.8721 20.3382 26.1617C20.1217 26.3056 19.9063 26.4486 19.6981 26.5954L19.6923 26.5995L19.6858 26.6026C19.4423 26.7188 19.2098 26.8585 18.9733 27.0007L18.9715 27.0017C18.7367 27.1429 18.4978 27.2865 18.2464 27.4065L18.244 27.4077L18.2415 27.4087C17.9922 27.5086 17.7567 27.6314 17.5203 27.7546C17.4251 27.8043 17.3297 27.854 17.2332 27.9023C16.9689 28.0347 16.6995 28.1366 16.4308 28.2343C16.3915 28.2485 16.3522 28.2627 16.313 28.2769C16.0828 28.36 15.8538 28.4428 15.6245 28.5426L15.6229 28.5434C15.099 28.7581 14.5488 28.9261 13.9731 28.9983L13.959 29L13.9451 28.9971C13.1096 28.8208 12.3354 28.4422 11.5772 28.0714C11.5104 28.0387 11.4437 28.0061 11.3771 27.9737L11.3755 27.9729L11.374 27.9721C11.2178 27.8878 11.0681 27.7918 10.9215 27.6978L10.9201 27.6969C10.7722 27.602 10.6274 27.5092 10.4773 27.4283L10.4735 27.4262L10.4698 27.4237C9.87798 27.0204 9.30753 26.5919 8.78377 26.091C8.78372 26.091 8.78368 26.0909 8.78364 26.0909L8.84213 26.0297L8.78377 26.091C8.78376 26.091 8.78377 26.091 8.78377 26.091C8.30701 25.6372 7.87909 25.1128 7.47731 24.5918L7.47551 24.5895L7.47181 24.5839C7.14327 24.0901 6.80984 23.589 6.57093 23.0391C6.57127 23.0397 6.5716 23.0404 6.57194 23.0411L6.64766 23.0033L6.57003 23.037C6.57033 23.0377 6.57063 23.0384 6.57093 23.0391C6.35694 22.6098 6.19066 22.1576 6.02628 21.7105L6.02505 21.7072L6.02464 21.7059C6.00469 21.646 6.01639 21.59 6.02578 21.5523C6.02852 21.5413 6.03101 21.5319 6.03321 21.5235C6.03995 21.4979 6.04391 21.4829 6.04391 21.4664V21.4212L6.08152 21.3961C6.20592 21.313 6.34736 21.2878 6.47953 21.2786C6.53929 21.2744 6.59956 21.2734 6.65646 21.2724C6.66253 21.2723 6.66857 21.2722 6.67456 21.2721C6.73549 21.271 6.79222 21.2696 6.84555 21.2646L6.83946 21.2661L6.86002 21.3482L6.85159 21.264C6.84958 21.2642 6.84757 21.2644 6.84555 21.2646L6.84952 21.2636C7.03123 21.218 7.24726 21.1638 7.46424 21.2725L7.47953 21.2802L7.49064 21.2932C7.52124 21.329 7.54767 21.3664 7.5709 21.4048ZM17.584 14.1741C18.0758 14.2683 18.5461 14.4675 18.9463 14.7794L18.9468 14.7797C19.4045 15.1418 19.7421 15.6695 19.8911 16.2459C19.9901 16.3532 20.0387 16.4823 20.0629 16.6128C20.0879 16.7476 20.0879 16.8901 20.0879 17.0176V17.0266L20.0873 17.0318C20.0789 17.0991 20.05 17.1514 20.0051 17.1892C19.9631 17.2245 19.9125 17.2425 19.8683 17.254C19.8382 17.2618 19.804 17.2681 19.7736 17.2738C19.7609 17.2761 19.7488 17.2784 19.7379 17.2806C19.7129 17.2856 19.6913 17.2907 19.6726 17.2968C19.6692 17.3121 19.6663 17.3281 19.6631 17.3455L19.6618 17.3527L19.6618 17.3529C19.658 17.3737 19.6533 17.3996 19.645 17.4255C19.6822 17.5345 19.7202 17.6301 19.7712 17.7371C19.8891 17.732 20.0014 17.7437 20.1097 17.7592C20.1516 17.7652 20.1921 17.7716 20.2322 17.778C20.3157 17.7912 20.397 17.8041 20.4829 17.8119L20.5043 17.8139L20.5222 17.8258C20.6686 17.9236 20.8363 18.083 20.8656 18.2852C20.9011 18.4988 20.9307 18.7123 20.9601 18.9244L20.9602 18.9249C20.9897 19.1379 21.0191 19.3495 21.0542 19.561L21.0546 19.563C21.0679 19.6563 21.0623 19.7739 21.0186 19.8723C21.0015 19.9108 20.9779 19.9479 20.9458 19.9792C21.4911 20.0895 22.027 20.2796 22.4841 20.6182L22.4858 20.6194L22.4874 20.6207C22.7531 20.8385 22.9772 21.1095 23.079 21.4354C23.1 21.4803 23.1064 21.5242 23.1039 21.5656C24.1749 20.3633 25.0656 19.0267 25.7544 17.5778C25.8212 17.4197 25.8906 17.2625 25.96 17.1054C26.1629 16.6461 26.366 16.1863 26.5051 15.6987C26.5763 15.4255 26.6592 15.1525 26.7415 14.8815L26.7417 14.8806C26.8136 14.644 26.885 14.4089 26.9486 14.1741H17.584ZM22.9328 21.5713C22.9371 21.5471 22.9347 21.525 22.9243 21.5042L22.9212 21.498L22.9192 21.4913C22.8315 21.2057 22.6327 20.9591 22.3817 20.7529C21.8553 20.3637 21.2109 20.1778 20.5576 20.0843L20.5564 20.0841C20.2054 20.0286 19.8557 20.0322 19.4978 20.0359C19.4073 20.0369 19.3163 20.0378 19.2246 20.0378H18.786L18.8221 20.0234C18.7009 20.0609 18.589 20.1135 18.4982 20.1902C19.38 20.1502 20.2878 20.143 21.1769 20.3433C21.7994 20.4634 22.4394 20.7305 22.8114 21.302L22.8123 21.3034L22.8131 21.3047C22.815 21.3079 22.8169 21.3111 22.8189 21.3145C22.8527 21.3706 22.9025 21.4535 22.9255 21.539C22.9283 21.5495 22.9308 21.5603 22.9328 21.5713ZM19.4916 19.8667C19.5713 19.8658 19.6513 19.865 19.7317 19.8648C19.667 19.8488 19.6027 19.8319 19.5389 19.8138C19.5241 19.8316 19.5084 19.8493 19.4916 19.8667ZM20.8916 19.6616C20.892 19.6366 20.8905 19.6116 20.8871 19.5878C20.8516 19.3742 20.822 19.1607 20.7926 18.9486L20.7926 18.9481C20.763 18.7352 20.7337 18.5235 20.6985 18.312L20.6982 18.3101C20.6807 18.1872 20.5744 18.0683 20.4455 17.9783C20.3615 17.9698 20.2784 17.9567 20.1989 17.9441C20.1602 17.938 20.1224 17.932 20.0857 17.9268C19.9641 17.9093 19.8478 17.8986 19.7278 17.9095L19.6702 17.9148L19.6444 17.863C19.5779 17.7296 19.5315 17.6162 19.4871 17.4867C19.4794 17.5167 19.4811 17.5349 19.4891 17.551L19.4902 17.5533L19.4912 17.5555C19.5182 17.6186 19.5422 17.6859 19.5655 17.7512C19.5738 17.7744 19.582 17.7974 19.5902 17.8198C19.6175 17.8943 19.6457 17.9657 19.6804 18.0323C19.7744 18.0468 19.8719 18.0529 19.9744 18.0593C19.9935 18.0605 20.0129 18.0617 20.0324 18.063C20.1681 18.0718 20.311 18.084 20.4495 18.1217C20.5836 18.1558 20.6707 18.2826 20.6989 18.3959L20.6997 18.3991L20.7003 18.4025C20.7242 18.5462 20.7421 18.6956 20.7597 18.8427L20.7598 18.8437C20.7774 18.9907 20.7948 19.1354 20.8177 19.274C20.8515 19.41 20.8734 19.534 20.8916 19.6616ZM19.5164 17.2252C19.5181 17.2193 19.5199 17.2134 19.5219 17.2074L19.5271 17.1918C19.421 17.1945 19.3168 17.1999 19.214 17.2187C19.2997 17.2125 19.3851 17.2132 19.4683 17.2208L19.5164 17.2252ZM19.8985 16.6547C19.8978 16.651 19.8972 16.6474 19.8965 16.6437C19.8749 16.5272 19.8331 16.4268 19.7546 16.3482L19.7381 16.3316L19.7324 16.3089C19.5952 15.759 19.275 15.2553 18.842 14.9126C18.0175 14.2703 16.8673 14.1299 15.8748 14.4306L15.8724 14.4313L15.87 14.4319C15.3971 14.5447 14.9881 14.8145 14.5904 15.0954C14.493 15.2383 14.374 15.3576 14.2612 15.4706C13.9239 15.8778 13.7648 16.4226 13.7876 16.9468L13.7876 16.9486V16.9504C13.7876 17.6845 14.0856 18.4012 14.505 19.0315L14.6586 19.2624L14.4022 19.1566C14.2103 19.0774 14.0052 19.0314 13.7925 18.9964C13.6878 18.9791 13.5821 18.9647 13.4755 18.9501L13.4707 18.9494C13.3636 18.9348 13.2555 18.92 13.1487 18.9021C12.3097 18.809 11.4502 18.8561 10.639 19.1113C10.5718 19.1357 10.5051 19.1554 10.4414 19.1737C10.4325 19.1763 10.4238 19.1788 10.4151 19.1813C10.3597 19.1972 10.3069 19.2123 10.2552 19.2296C10.1367 19.2692 10.0308 19.3178 9.93666 19.4017L9.93502 19.4031L9.93331 19.4045C9.90646 19.426 9.88437 19.4845 9.89594 19.5517C9.89845 19.5663 9.90217 19.5794 9.90694 19.591L10.0284 19.5244C11.0412 18.9686 12.2412 18.8987 13.3593 19.0417C13.9343 19.1082 14.5086 19.2363 15.0631 19.4066C15.0614 19.391 15.0599 19.3756 15.0584 19.3605L15.0582 19.3587C15.0548 19.3246 15.0515 19.292 15.0473 19.2603C15.0161 19.2624 14.984 19.2656 14.9503 19.269L14.9484 19.2692C14.8906 19.275 14.8281 19.2812 14.7649 19.2812H14.7186L14.6936 19.2423C14.2648 18.5738 13.9259 17.8021 13.9016 17.0005C13.8772 16.3128 14.1711 15.65 14.6859 15.2077C15.4391 14.5505 16.4803 14.3335 17.4456 14.5262C18.1169 14.6227 18.8002 14.8888 19.243 15.431C19.4621 15.6993 19.6344 16.0186 19.7085 16.3653L19.7089 16.3672L19.7092 16.3691C19.7277 16.4802 19.8007 16.5566 19.898 16.6542L19.8985 16.6547ZM19.7742 17.0148C19.7721 16.9818 19.7689 16.947 19.7657 16.9108L19.7655 16.9086C19.7608 16.8569 19.7558 16.8021 19.7541 16.7496C19.6679 16.6627 19.5694 16.5555 19.5426 16.3989C19.475 16.0841 19.3171 15.7894 19.1119 15.538C18.7057 15.0405 18.0686 14.7864 17.4193 14.6934L17.417 14.6931L17.4146 14.6926C16.493 14.5079 15.506 14.7166 14.7969 15.3355L14.7964 15.3359C14.3203 15.7448 14.0481 16.3585 14.0707 16.9947L14.0708 16.9952C14.0932 17.7385 14.4026 18.4652 14.8106 19.1108C14.85 19.1089 14.8904 19.1049 14.9334 19.1006L14.9353 19.1004C14.9931 19.0946 15.0556 19.0883 15.1188 19.0883H15.1882L15.2018 19.1564C15.2144 19.2196 15.2207 19.2821 15.2264 19.3401L15.2266 19.3419C15.2326 19.4016 15.2381 19.4567 15.249 19.5111L15.2771 19.6521L15.1402 19.6082C14.5547 19.4205 13.9466 19.2799 13.3394 19.2097L13.3383 19.2096C12.3213 19.0795 11.2533 19.1313 10.3319 19.5604C12.1426 19.9019 13.9262 20.5 15.5793 21.2715L15.5806 21.2721C17.1685 22.0442 18.7138 22.9797 20.0321 24.1932C20.9995 23.4506 21.9186 22.6404 22.724 21.7181L22.7283 21.7131L22.7335 21.7088C22.7547 21.6911 22.7636 21.6736 22.7673 21.6564C22.7713 21.6374 22.7702 21.6133 22.762 21.583C22.7454 21.521 22.7066 21.4563 22.67 21.3952L22.6687 21.3931C22.333 20.8783 21.7471 20.6255 21.1435 20.5092L21.1422 20.5089L21.1409 20.5086C20.2094 20.2986 19.2523 20.3215 18.3086 20.3687L18.1452 20.3769L18.2329 20.2389C18.4191 19.9457 18.7596 19.8466 19.0455 19.7988L19.0474 19.7985C19.1847 19.7788 19.3241 19.6788 19.3828 19.5416L19.4101 19.4778L19.478 19.4921C19.578 19.5132 19.6786 19.5353 19.7793 19.5575C20.0984 19.6276 20.4196 19.6983 20.7314 19.7383C20.7119 19.5935 20.6897 19.4599 20.6527 19.3117L20.6519 19.3084L20.6513 19.3051C20.6274 19.1613 20.6095 19.0119 20.5919 18.8649L20.5918 18.8638C20.5742 18.7169 20.5569 18.5723 20.5339 18.4338C20.5144 18.3595 20.4609 18.299 20.4075 18.2856L20.4057 18.2852C20.2849 18.2522 20.1568 18.2407 20.0214 18.2318C20.0028 18.2306 19.9841 18.2295 19.9653 18.2283C19.849 18.2211 19.7275 18.2135 19.6106 18.1922L19.5718 18.1852L19.5523 18.1509C19.5014 18.0618 19.4641 17.9677 19.4313 17.878C19.422 17.8526 19.4131 17.8279 19.4045 17.8036C19.382 17.7408 19.3609 17.6814 19.3364 17.6241C19.3 17.549 19.3125 17.4769 19.3297 17.4218C19.3336 17.4089 19.3382 17.3961 19.3428 17.3839C19.1297 17.3818 18.9079 17.4284 18.7198 17.5226L18.2539 17.756L18.622 17.3872C18.7619 17.247 18.9444 17.0848 19.1637 17.056C19.2882 17.0314 19.4113 17.0254 19.5262 17.0225C19.5497 17.0219 19.5728 17.0214 19.5954 17.0209C19.6578 17.0196 19.717 17.0184 19.7742 17.0148ZM6.66554 13.0629C6.39941 14.0671 6.15672 15.0893 6.01582 16.111C6.01676 16.1108 6.01769 16.1107 6.01862 16.1106L6.02215 16.11C6.06536 16.1039 6.09857 16.0988 6.12532 16.0899L6.13465 16.0868L6.14445 16.0859C6.274 16.0741 6.39768 16.0623 6.52156 16.0505L6.52177 16.0505C6.62402 16.0407 6.7264 16.0309 6.83215 16.0212C6.92832 15.3079 7.08921 14.617 7.24905 13.9305L7.26445 13.8644L7.33019 13.863C8.08641 13.8472 8.84361 13.8525 9.59943 13.8578C9.97668 13.8604 10.3536 13.863 10.7299 13.863H27.5181L27.4952 13.966C27.3056 14.8213 27.0448 15.6763 26.7367 16.4837C25.6694 19.3593 23.7961 21.9011 21.4495 23.8487C19.4117 25.5344 17.0424 26.8164 14.5312 27.6235L14.5275 27.6247L14.5237 27.6255C14.4754 27.6363 14.4247 27.6527 14.3692 27.6712C14.3636 27.6731 14.3581 27.6749 14.3525 27.6768C14.3029 27.6934 14.2498 27.7112 14.1965 27.7252C14.0792 27.7562 13.9454 27.7736 13.8139 27.7165C12.4143 27.2406 11.0838 26.5266 9.9658 25.5256C8.76874 24.4672 7.82579 23.1299 7.27464 21.6502C7.13232 21.6616 6.98992 21.677 6.84857 21.6924L6.82009 21.6955C6.70473 21.7082 6.59002 21.7207 6.4777 21.7309C6.78062 22.6534 7.21415 23.5103 7.77841 24.3019L7.77862 24.3022C8.85476 25.8259 10.3532 27.023 12.0176 27.8452C12.6464 28.1486 13.2951 28.4272 13.9651 28.6144C14.52 28.4936 15.0747 28.3064 15.6201 28.1223C15.7112 28.0916 15.802 28.0609 15.8926 28.0307C19.5829 26.6172 22.9423 24.1916 25.2437 20.968L25.2438 20.9678C26.9156 18.6412 28.0138 15.9229 28.4699 13.0862C21.2096 13.0629 13.9492 13.0629 6.66554 13.0629ZM8.03777 21.6413C8.14087 21.9338 8.29421 22.2388 8.44519 22.5392C8.46901 22.5866 8.49278 22.6338 8.51628 22.6809C9.61419 24.7635 11.5776 26.3102 13.8001 27.0369L13.8006 27.0371C13.825 27.0452 13.8475 27.0533 13.8689 27.0609C13.9168 27.0781 13.9589 27.0932 14.0035 27.1025C14.0627 27.1148 14.1125 27.1131 14.1606 27.089L14.1663 27.0861L14.1724 27.0842C15.9845 26.4946 17.7469 25.7409 19.3433 24.7059C19.3739 24.6854 19.4017 24.6668 19.4252 24.6489C17.5201 23.3652 15.2981 22.5578 13.0728 22.0932C11.4151 21.7702 9.73699 21.5832 8.03777 21.6413Z" fill="white"/>
<path d="M6.5061 16.4775C7.07241 16.4302 7.66232 16.4539 8.20504 16.6194C8.67697 16.7849 9.17251 16.9977 9.55005 17.3523C9.83321 17.5651 10.0456 17.8489 10.1872 18.1799C10.2344 18.5109 10.022 18.8183 9.8804 19.0783C9.69163 19.2911 9.50285 19.5276 9.26689 19.7167C8.60618 20.3315 7.73312 20.6625 6.88364 20.8044C6.24653 20.8516 5.60943 20.8516 4.99592 20.6389C4.38241 20.4497 3.7689 20.1187 3.34416 19.6222C3.17898 19.4803 3.08459 19.2439 3.08459 19.0311C3.15538 18.4872 3.53293 18.038 3.86328 17.6361C4.57117 16.9031 5.53864 16.5721 6.5061 16.4775ZM4.92512 17.1159C4.19363 17.4706 3.58012 18.0853 3.32056 18.8656C3.24977 19.1256 3.43854 19.3384 3.58012 19.5276C4.09925 20.0714 4.80714 20.3788 5.53864 20.5206C6.67127 20.7334 7.87469 20.4733 8.79496 19.8113C9.33768 19.433 9.83321 18.9128 9.99838 18.2508C9.92759 18.038 9.78601 17.8725 9.64443 17.707C9.03092 17.045 8.13425 16.7139 7.26118 16.6903C6.48249 16.6667 5.65662 16.7849 4.92512 17.1159Z" fill="#FDFDFD"/>
<path fill-rule="evenodd" clip-rule="evenodd" d="M6.51376 16.5618C5.56 16.6551 4.61558 16.9804 3.92651 17.6924C3.92253 17.6972 3.91854 17.7021 3.91454 17.707C3.58536 18.1074 3.23719 18.5309 3.16927 19.0364C3.17086 19.2265 3.25663 19.4354 3.39932 19.5579L3.40426 19.5622L3.40849 19.5671C3.81968 20.0478 4.41731 20.3719 5.02088 20.558L5.02228 20.5584L5.02367 20.5589C5.61915 20.7654 6.24073 20.767 6.87354 20.7202C7.71126 20.5798 8.56539 20.2538 9.20927 19.6547L9.21156 19.6526L9.21399 19.6507C9.39887 19.5025 9.55308 19.3251 9.70727 19.1477C9.74165 19.1081 9.77603 19.0686 9.81074 19.0294C9.83044 18.9934 9.85077 18.9576 9.87117 18.9217C9.9263 18.8246 9.98194 18.7266 10.0269 18.6222C10.0871 18.4822 10.1221 18.3428 10.1048 18.2026C9.96854 17.8884 9.76643 17.6207 9.49924 17.42L9.49552 17.4172L9.49214 17.414C9.12859 17.0725 8.64802 16.8644 8.17872 16.6998C7.65032 16.539 7.07287 16.5151 6.51376 16.5618ZM6.49908 16.3931C7.07183 16.3453 7.67335 16.3687 8.22975 16.5384L8.23143 16.5389L8.23307 16.5395C8.70575 16.7053 9.21397 16.922 9.60463 17.2875C9.89891 17.5097 10.1188 17.8047 10.265 18.1466L10.2694 18.1568L10.271 18.1679C10.2976 18.355 10.2503 18.5313 10.1823 18.6891C10.1334 18.8027 10.0705 18.9134 10.0139 19.0132C9.99299 19.05 9.97294 19.0854 9.95475 19.1188L9.95013 19.1273L9.94373 19.1345C9.90932 19.1733 9.87452 19.2133 9.8391 19.2541C9.685 19.4315 9.51919 19.6224 9.32228 19.7808C8.64601 20.4089 7.75665 20.7443 6.89761 20.8878L6.89379 20.8884L6.88993 20.8887C6.25033 20.9362 5.59951 20.9374 4.96961 20.7193C4.34857 20.5276 3.72178 20.1912 3.28401 19.682C3.10089 19.5216 3 19.263 3 19.031V19.0255L3.00071 19.0201C3.07319 18.4633 3.45032 18.0049 3.77108 17.6149C3.78008 17.604 3.78903 17.5931 3.79793 17.5823L3.80008 17.5797L3.80244 17.5772C4.52882 16.8251 5.51802 16.489 6.49789 16.3933L6.49908 16.3931ZM4.89026 17.0388C5.63614 16.7012 6.4754 16.5818 7.26364 16.6057C8.15491 16.6299 9.07476 16.9677 9.70653 17.6494L9.70767 17.6507L9.71324 17.6572C9.85186 17.8192 10.0027 17.9955 10.0787 18.2241L10.0865 18.2474L10.0805 18.2713C9.90832 18.9614 9.39428 19.4966 8.84389 19.8803C7.90441 20.556 6.67761 20.8207 5.52304 20.6038L5.52255 20.6037C4.77961 20.4596 4.05369 20.1462 3.51894 19.586L3.51544 19.5823L3.5124 19.5783C3.50065 19.5626 3.48823 19.5463 3.47541 19.5295C3.41477 19.45 3.3452 19.3589 3.29542 19.2617C3.23345 19.1408 3.19619 19.0003 3.23894 18.8433L3.23955 18.841L3.24029 18.8388C3.50829 18.0332 4.14001 17.4025 4.88823 17.0397L4.89026 17.0388ZM4.96106 17.1925C4.24748 17.5388 3.65311 18.1365 3.40166 18.8899C3.3745 18.9921 3.39628 19.0875 3.44604 19.1845C3.48824 19.2669 3.54642 19.3433 3.60669 19.4224C3.61935 19.439 3.6321 19.4558 3.64482 19.4727C4.14796 19.9979 4.83623 20.2981 5.55454 20.4375C6.66495 20.646 7.84465 20.3907 8.74557 19.7426L8.74659 19.7418C9.27462 19.3738 9.74602 18.8769 9.9101 18.2545C9.84323 18.0712 9.71846 17.9237 9.58126 17.7633C8.98607 17.1218 8.1132 16.798 7.25892 16.7749L7.25864 16.7749C6.48991 16.7515 5.67787 16.8684 4.96106 17.1925Z" fill="white"/>
<path d="M19.4607 18.9838C19.4371 18.771 19.3899 18.5582 19.4371 18.3454C19.555 18.6291 19.6022 18.9601 19.6966 19.2439C19.6258 19.2202 19.555 19.2202 19.4843 19.1966C19.4607 19.102 19.4607 19.0311 19.4607 18.9838Z" fill="#FDFDFD"/>
<path fill-rule="evenodd" clip-rule="evenodd" d="M19.4124 18.0657L19.5152 18.3129C19.5768 18.4611 19.6194 18.6202 19.6578 18.7742C19.6643 18.8004 19.6707 18.8265 19.6771 18.8523C19.7086 18.98 19.7387 19.1025 19.7769 19.2172L19.8303 19.3778L19.6698 19.3241C19.6417 19.3148 19.6128 19.3098 19.5765 19.3037L19.5742 19.3033C19.5402 19.2976 19.4992 19.2908 19.4574 19.2769L19.4134 19.2621L19.4021 19.2171C19.3768 19.1155 19.376 19.0378 19.376 18.9885C19.3718 18.9515 19.3667 18.9132 19.3615 18.8741C19.3385 18.7027 19.3131 18.5135 19.3544 18.3271L19.4124 18.0657ZM19.5457 19.0247C19.5465 19.0538 19.5489 19.0881 19.5561 19.1281C19.5619 19.1293 19.5679 19.1305 19.5742 19.1316C19.5643 19.0962 19.5549 19.0605 19.5457 19.0247Z" fill="white"/>
<path d="M19.791 18.3926C19.9562 18.4162 20.145 18.3926 20.2629 18.5108C20.2865 18.7945 20.3337 19.0783 20.3809 19.3383C20.2629 19.3147 20.145 19.2911 20.027 19.2674C19.9562 19.0073 19.8854 18.7 19.791 18.3926Z" fill="#FDFDFD"/>
<path fill-rule="evenodd" clip-rule="evenodd" d="M19.671 18.2899L19.8031 18.3088C19.8408 18.3142 19.8804 18.317 19.9237 18.32L19.9252 18.3201C19.967 18.323 20.0123 18.3261 20.0567 18.3325C20.1465 18.3453 20.2449 18.3728 20.3229 18.451L20.3448 18.4729L20.3473 18.5038C20.3706 18.7833 20.4172 19.0637 20.4642 19.3232L20.4865 19.4458L19.9591 19.3401L19.9454 19.2896C19.9207 19.199 19.8964 19.1041 19.8713 19.0062C19.8231 18.818 19.772 18.6188 19.7102 18.4174L19.671 18.2899ZM19.9079 18.4885C19.9555 18.6532 19.9975 18.8169 20.0368 18.9701C20.0568 19.0481 20.0761 19.1234 20.0951 19.1948L20.2759 19.231C20.2381 19.0148 20.2024 18.7841 20.1816 18.552C20.1441 18.5242 20.0955 18.509 20.0327 18.5C19.995 18.4946 19.9554 18.4918 19.9121 18.4888L19.9106 18.4887C19.9097 18.4887 19.9088 18.4886 19.9079 18.4885Z" fill="white"/>
<path d="M11.1311 7.30359C12.6648 7.30359 14.1986 7.30359 15.7324 7.30359C15.2605 8.98231 14.8357 10.6847 14.3638 12.3634C13.3727 12.3634 12.3817 12.3634 11.3906 12.3634C10.9187 11.9378 10.4704 11.4886 10.022 11.0393C9.50291 11.4649 8.98378 11.9378 8.46466 12.3634C7.37922 12.3634 6.31738 12.3634 5.23193 12.3634C7.21404 10.6847 9.17256 8.98231 11.1311 7.30359ZM10.14 10.9448C10.7299 10.9448 11.3434 10.9448 11.9334 10.9448C12.1221 10.2827 12.2873 9.6207 12.4761 8.95867C11.6738 9.6207 10.9187 10.2827 10.14 10.9448Z" fill="#C90016"/>
<path fill-rule="evenodd" clip-rule="evenodd" d="M11.0999 7.21899H15.8442L15.814 7.32652C15.5782 8.16517 15.3542 9.00984 15.13 9.85522L15.1299 9.85561C14.9058 10.7006 14.6815 11.5464 14.4454 12.3863L14.428 12.4481H11.3582L11.3341 12.4263C10.8794 12.0162 10.4467 11.5845 10.0166 11.1536C9.77776 11.351 9.53874 11.5578 9.29886 11.7654L9.29841 11.7658C9.03915 11.9901 8.77888 12.2154 8.51844 12.4289L8.49505 12.4481H5.00122L5.17738 12.2989C6.46611 11.2074 7.7446 10.1061 9.01991 9.00763C9.70587 8.41677 10.3909 7.8267 11.0761 7.23937L11.0999 7.21899ZM11.1625 7.38824C10.4859 7.96827 9.80906 8.55126 9.13116 9.13518C7.91355 10.184 6.69247 11.2358 5.46279 12.2788H8.4345C8.68527 12.0725 8.93621 11.8554 9.18811 11.6374L9.18857 11.637C9.44782 11.4127 9.70809 11.1874 9.96852 10.9739L10.0279 10.9253L10.03 10.9274L10.0853 10.8803C10.3442 10.6602 10.6008 10.4398 10.8576 10.2193C11.3719 9.77761 11.8869 9.33529 12.4224 8.89343L12.6322 8.72027L12.5576 8.9819C12.4634 9.31213 12.3751 9.64247 12.2866 9.9736L12.2865 9.97386C12.1981 10.3047 12.1095 10.6363 12.0149 10.968L11.9974 11.0294H10.1318C10.556 11.4545 10.9795 11.8771 11.4233 12.2788H14.2998C14.5292 11.4604 14.7477 10.6365 14.9664 9.81183C15.181 9.00276 15.3958 8.19289 15.6209 7.38824H11.1625ZM10.37 10.8602H11.8696C11.9572 10.5504 12.0401 10.2405 12.1231 9.92989L12.1232 9.92964C12.1884 9.68577 12.2537 9.44147 12.3214 9.19702C11.8616 9.58008 11.4159 9.9629 10.9696 10.3462C10.7703 10.5174 10.5708 10.6887 10.37 10.8602Z" fill="white"/>
<path d="M8.44112 22.7195C8.22875 22.3412 8.03998 21.9393 7.922 21.5373C9.64455 21.49 11.3907 21.6555 13.0896 21.9865C15.3785 22.4594 17.6202 23.287 19.5551 24.611C19.5079 24.682 19.4371 24.7056 19.3899 24.7529C17.7854 25.8169 16.0156 26.5735 14.1987 27.1409C14.0571 27.2119 13.9155 27.1409 13.7739 27.0936C11.5323 26.3843 9.55016 24.8238 8.44112 22.7195Z" fill="#C90016"/>
<path fill-rule="evenodd" clip-rule="evenodd" d="M8.03568 21.6191C8.15198 21.9778 8.323 22.3365 8.51474 22.678L8.51584 22.68L8.51581 22.68C9.61366 24.7631 11.5771 26.3098 13.7993 27.0129L13.8006 27.0133L13.8006 27.0133C13.825 27.0215 13.8475 27.0296 13.8688 27.0372C13.9167 27.0544 13.9589 27.0694 14.0034 27.0788C14.0627 27.0911 14.1124 27.0894 14.1606 27.0652L14.1667 27.0622L14.1733 27.0601C15.9825 26.4951 17.7421 25.7428 19.3366 24.6866C19.3599 24.6647 19.3876 24.646 19.4086 24.6319C19.4134 24.6286 19.4178 24.6256 19.4218 24.6229C17.518 23.3404 15.3198 22.5338 13.0728 22.0695C11.4161 21.7467 9.71501 21.582 8.03568 21.6191ZM7.91951 21.4527C9.64894 21.4052 11.4013 21.5714 13.1057 21.9034L13.1066 21.9036L13.1066 21.9036C15.4035 22.3782 17.6564 23.2093 19.6027 24.5412L19.6716 24.5883L19.6254 24.6579C19.5931 24.7064 19.5534 24.7373 19.5209 24.7601C19.5109 24.7671 19.5023 24.773 19.4946 24.7782C19.4746 24.7918 19.4617 24.8006 19.4497 24.8126L19.4436 24.8187L19.4365 24.8234C17.8254 25.8917 16.05 26.6508 14.2299 27.2198C14.1388 27.2633 14.0493 27.2612 13.9689 27.2444C13.9121 27.2326 13.8526 27.2113 13.8003 27.1926C13.7816 27.1859 13.7639 27.1795 13.7476 27.1741C11.487 26.4586 9.48683 24.8848 8.36661 22.7599C8.15266 22.3787 7.96094 21.971 7.84063 21.5611L7.80969 21.4557L7.91951 21.4527Z" fill="white"/>
<path d="M16.5583 7.32723C16.6291 7.32723 16.6998 7.30359 16.7942 7.30359C19.1539 7.30359 21.5135 7.30359 23.8732 7.30359C23.7552 7.77647 23.6136 8.24935 23.4957 8.72223C22.0091 8.74587 20.5225 8.72223 19.0123 8.72223C18.9415 8.98231 18.8707 9.26604 18.7999 9.52612C20.3101 9.52612 21.7967 9.52612 23.3069 9.52612C23.1889 9.999 23.0473 10.4719 22.9293 10.9448C21.4192 10.9684 19.9326 10.9448 18.4224 10.9448C18.3044 11.4176 18.1864 11.8905 18.0448 12.3634C17.101 12.3634 16.1571 12.3634 15.2133 12.3634C15.5436 11.1339 15.874 9.88079 16.2043 8.6513C16.3223 8.20206 16.4639 7.77647 16.5583 7.32723Z" fill="#002D62"/>
<path fill-rule="evenodd" clip-rule="evenodd" d="M16.6278 7.40685C16.5686 7.67524 16.4931 7.93839 16.4178 8.20093C16.3727 8.35812 16.3277 8.51508 16.2863 8.67282L16.2862 8.67328C16.121 9.28791 15.9559 9.90847 15.7907 10.5291C15.6351 11.1139 15.4794 11.6989 15.3237 12.2788H17.9818C18.1149 11.8282 18.2274 11.3773 18.3404 10.9243L18.3564 10.8602H18.4225C18.9278 10.8602 19.4299 10.8628 19.9309 10.8654C20.9077 10.8706 21.8803 10.8757 22.8632 10.8612C22.9181 10.6449 22.9774 10.4287 23.0365 10.2136L23.0366 10.2131C23.0919 10.0117 23.1469 9.81112 23.1983 9.61077H18.6893L18.7184 9.50393C18.7537 9.37442 18.7889 9.23893 18.8244 9.10288L18.8244 9.10258C18.8598 8.96682 18.8953 8.83051 18.9308 8.70003L18.9478 8.63763H19.0124C19.5186 8.63763 20.0216 8.64028 20.5225 8.64292C21.4965 8.64805 22.4627 8.65314 23.4296 8.63865C23.4844 8.42235 23.5437 8.20626 23.6028 7.99109L23.6029 7.99054C23.6582 7.78916 23.7133 7.58859 23.7646 7.38824H16.7944C16.7541 7.38824 16.7183 7.39323 16.6804 7.39907C16.6774 7.39953 16.6744 7.40001 16.6713 7.40049C16.6575 7.40263 16.643 7.4049 16.6278 7.40685ZM16.6546 7.2318C16.6934 7.22582 16.7402 7.21899 16.7944 7.21899H23.9817L23.9554 7.3241C23.8962 7.56148 23.8311 7.79869 23.7663 8.03478L23.7662 8.03533C23.7012 8.27194 23.6366 8.50742 23.5779 8.74274L23.5621 8.80583L23.4971 8.80687C22.5069 8.82262 21.516 8.8174 20.5192 8.81215C20.0401 8.80963 19.5596 8.8071 19.0772 8.80689C19.0476 8.91723 19.0179 9.03118 18.9881 9.14552L18.9881 9.14574C18.9623 9.24487 18.9364 9.3443 18.9105 9.44153H23.4153L23.3891 9.54664C23.3299 9.78403 23.2648 10.0213 23.2 10.2574L23.1998 10.2579C23.1349 10.4945 23.0703 10.73 23.0116 10.9653L22.9958 11.0284L22.9308 11.0294C21.924 11.0452 20.927 11.0399 19.9275 11.0347C19.4489 11.0322 18.9697 11.0296 18.4886 11.0294C18.376 11.4808 18.2618 11.9341 18.126 12.3877L18.108 12.4481H15.103L15.1317 12.3415C15.2968 11.7268 15.462 11.1063 15.6271 10.4856C15.7923 9.86506 15.9575 9.24438 16.1227 8.6296C16.1662 8.4638 16.2123 8.30343 16.2577 8.145C16.3376 7.86689 16.4157 7.59478 16.4756 7.30986L16.4897 7.24264H16.5584C16.5845 7.24264 16.6111 7.23852 16.6486 7.23273C16.6506 7.23242 16.6526 7.23212 16.6546 7.2318Z" fill="white"/>
<path d="M24.6283 7.30359C25.5722 7.30359 26.516 7.30359 27.4599 7.30359C27.1295 8.50943 26.8228 9.73892 26.4924 10.9448C27.8374 10.9448 29.1588 10.9448 30.5038 10.9448C30.0083 11.394 29.4892 11.8432 28.9701 12.2925C28.9229 12.3634 28.8285 12.3634 28.7577 12.3634C26.9408 12.3634 25.1238 12.3634 23.3069 12.3634C23.7316 10.6847 24.18 9.00596 24.6283 7.30359Z" fill="#002D62"/>
<path fill-rule="evenodd" clip-rule="evenodd" d="M24.5631 7.21899H27.5709L27.5416 7.32597C27.3765 7.92835 27.2174 8.53671 27.0581 9.14562L27.058 9.14584C26.9082 9.71857 26.7582 10.2918 26.6033 10.8602H30.7232L30.5607 11.0075C30.0668 11.4553 29.5496 11.9029 29.0331 12.3499C28.994 12.4019 28.9399 12.4259 28.8918 12.437C28.844 12.4481 28.7945 12.4481 28.7608 12.4481L23.1982 12.4481L23.2249 12.3427C23.5609 11.0148 23.9116 9.68691 24.2653 8.3478C24.3589 7.99341 24.4527 7.63823 24.5465 7.28206L24.5631 7.21899ZM24.6936 7.38824C24.6052 7.72354 24.5169 8.05789 24.4288 8.39148C24.0845 9.69504 23.7433 10.987 23.4157 12.2788H28.7577C28.7948 12.2788 28.8263 12.2784 28.8537 12.2721C28.8792 12.2662 28.892 12.2572 28.8997 12.2456L28.906 12.236L28.9147 12.2285C29.3771 11.8284 29.8389 11.4288 30.2837 11.0294H26.3816L26.4109 10.9224C26.5759 10.3201 26.735 9.7117 26.8943 9.10279L26.8944 9.10255C27.0442 8.52983 27.1942 7.95662 27.3491 7.38824H24.6936Z" fill="white"/>
<path d="M6.60068 12.9781C13.9156 12.9781 21.2541 12.9781 28.5691 12.9781C28.1207 15.8627 27.0117 18.629 25.3127 20.9934C22.9767 24.2563 19.6024 26.668 15.9213 28.0866C15.2842 28.323 14.6235 28.5595 13.9628 28.6777C13.2785 28.4885 12.6178 28.2285 11.9807 27.8975C10.3053 27.0699 8.79516 25.8641 7.70972 24.3272C7.11981 23.4997 6.67147 22.6012 6.36472 21.6318C6.69507 21.6081 7.02542 21.5845 7.33218 21.5372C7.8749 23.0504 8.81876 24.3981 10.0222 25.4385C11.1312 26.4315 12.4526 27.1408 13.8448 27.6137C14.0572 27.7083 14.2932 27.5664 14.5055 27.5191C17.0068 26.7153 19.3664 25.4385 21.3957 23.7598C23.7318 21.8209 25.5959 19.291 26.6578 16.4301C26.9645 15.6026 27.2241 14.775 27.4128 13.9238C21.8441 13.9238 16.2989 13.9238 10.7301 13.9238C9.59744 13.9238 8.46481 13.9238 7.33218 13.9238C7.167 14.6332 7.00182 15.3425 6.90743 16.0755C6.64787 16.0991 6.41191 16.1227 6.15235 16.1464C6.08156 16.17 5.98717 16.17 5.91638 16.1937C6.05796 15.1297 6.31752 14.0421 6.60068 12.9781Z" fill="#002D62"/>
<path fill-rule="evenodd" clip-rule="evenodd" d="M6.53547 12.8935H28.6677L28.6525 12.9911C28.2022 15.8884 27.0883 18.6673 25.3813 21.0428C23.0344 24.3208 19.6459 26.7418 15.9516 28.1656L15.9506 28.166C15.3139 28.4022 14.6467 28.6413 13.9775 28.761L13.9586 28.7644L13.9401 28.7593C13.2503 28.5686 12.5843 28.3065 11.9423 27.973C10.2565 27.1401 8.73505 25.9258 7.64056 24.3762C7.04556 23.5415 6.59328 22.6351 6.28387 21.6573L6.25151 21.5551L6.35851 21.5474C6.6896 21.5237 7.01639 21.5003 7.31912 21.4536L7.3881 21.443L7.41166 21.5087C7.94929 23.0077 8.88456 24.3433 10.0774 25.3745L10.0785 25.3754C11.1776 26.3596 12.4885 27.0637 13.8719 27.5336L13.8755 27.5349L13.8791 27.5364C13.9588 27.5719 14.0477 27.5657 14.1534 27.5378C14.201 27.5253 14.2488 27.5093 14.2991 27.4924C14.3046 27.4906 14.3101 27.4888 14.3156 27.4869C14.3694 27.469 14.4265 27.4503 14.4831 27.4375C16.973 26.6367 19.3217 25.3655 21.3415 23.6947C23.667 21.7646 25.5219 19.2468 26.5782 16.4007C26.8716 15.6093 27.1213 14.8189 27.3069 14.0085H7.39919C7.23908 14.6964 7.08207 15.3806 6.9912 16.0863L6.98253 16.1536L6.91494 16.1598C6.7854 16.1716 6.66171 16.1834 6.53783 16.1952L6.53762 16.1952C6.41672 16.2067 6.29563 16.2183 6.16901 16.2298C6.12893 16.242 6.0855 16.2482 6.04971 16.2533L6.04619 16.2538C6.00298 16.26 5.96977 16.265 5.94302 16.274L5.81445 16.3169L5.83233 16.1825C5.97464 15.1131 6.23531 14.0213 6.51874 12.9564L6.53547 12.8935ZM6.6656 13.0627C6.3997 14.0661 6.15719 15.087 6.01623 16.0871C6.01705 16.087 6.01787 16.0869 6.01868 16.0868L6.02221 16.0863C6.06541 16.0801 6.09863 16.0751 6.12537 16.0661L6.13471 16.063L6.1445 16.0621C6.27408 16.0503 6.39778 16.0385 6.52168 16.0267C6.62393 16.0169 6.72646 16.0072 6.83221 15.9974C6.92837 15.2841 7.08926 14.5932 7.2491 13.9068L7.26483 13.8393H27.5181L27.4953 13.9422C27.3055 14.7981 27.0447 15.6294 26.7369 16.4596C25.6696 19.3354 23.7962 21.8773 21.4496 23.8249C19.4118 25.5107 17.0425 26.7926 14.5313 27.5997L14.5276 27.6009L14.5238 27.6018C14.4755 27.6125 14.4247 27.6289 14.3692 27.6475C14.3637 27.6493 14.3581 27.6512 14.3525 27.653C14.303 27.6696 14.2499 27.6874 14.1966 27.7015C14.0793 27.7324 13.9454 27.7498 13.814 27.6927C12.4145 27.2169 11.0841 26.5029 9.96611 25.502C8.76963 24.4675 7.8273 23.1317 7.27604 21.6311C7.01921 21.6675 6.74825 21.6889 6.47818 21.7085C6.78108 22.6305 7.21447 23.4869 7.77846 24.2781L7.77868 24.2784C8.85489 25.8022 10.3535 26.9994 12.018 27.8216L12.0195 27.8224C12.6457 28.1477 13.2947 28.4039 13.9666 28.591C14.6125 28.4732 15.26 28.2417 15.8912 28.0075C19.5588 26.594 22.9187 24.1917 25.2438 20.9442C26.9155 18.6176 28.0138 15.8994 28.4699 13.0627H6.6656Z" fill="white"/>
<path d="M14.7414 15.2717C15.4729 14.6333 16.4876 14.3968 17.4314 14.5151C18.0921 14.6096 18.7292 14.8697 19.1776 15.3899C19.3899 15.65 19.5551 15.9573 19.6259 16.2884C19.6495 16.4302 19.7439 16.5248 19.8383 16.6194C19.8619 16.7376 19.8619 16.8795 19.8619 16.9977C19.6259 17.0213 19.3899 17.0213 19.1776 17.045C18.9888 17.0923 18.8236 17.2105 18.682 17.3523C18.9416 17.2578 19.2012 17.1868 19.4607 17.2105C19.4371 17.305 19.3663 17.3996 19.4135 17.4942C19.4843 17.6834 19.5315 17.8489 19.6259 18.0144C19.8855 18.0853 20.1686 18.0617 20.4282 18.1089C20.5226 18.1326 20.617 18.2035 20.617 18.3217C20.6642 18.6055 20.7113 18.9128 20.7585 19.1966C20.7821 19.3857 20.8057 19.5512 20.8529 19.7404C20.381 19.6931 19.9327 19.5749 19.4843 19.4803C19.4371 19.6694 19.272 19.764 19.0832 19.7877C18.8 19.835 18.4933 19.9295 18.3281 20.1896C19.272 20.1423 20.263 20.1187 21.1833 20.3315C21.7732 20.4733 22.4103 20.7334 22.7642 21.2536C22.835 21.3718 22.953 21.561 22.8114 21.6792C22.0092 22.6249 21.0653 23.4525 20.0506 24.2091C18.7292 23.0033 17.1719 22.0338 15.5673 21.2536C13.8212 20.4261 11.9806 19.835 10.0929 19.5039C11.084 18.9601 12.2874 18.8892 13.3728 19.0311C13.9863 19.102 14.5998 19.2675 15.1898 19.433C15.1898 19.3148 15.1662 19.1966 15.1426 19.0783C15.0246 19.0783 14.9066 19.102 14.7886 19.102C14.3639 18.44 14.0335 17.707 14.0099 16.9031C13.9863 16.3593 14.2695 15.6973 14.7414 15.2717ZM19.4607 18.9838C19.4607 19.0547 19.4607 19.1256 19.4843 19.1966C19.5551 19.2202 19.6259 19.2202 19.6967 19.2439C19.6023 18.9365 19.5551 18.6291 19.4371 18.3454C19.3663 18.5345 19.4371 18.771 19.4607 18.9838ZM19.7911 18.3927C19.8619 18.7 19.9563 18.9838 20.027 19.2911C20.145 19.3148 20.263 19.3384 20.381 19.3621C20.3338 19.0783 20.2866 18.7946 20.263 18.5345C20.145 18.4163 19.9563 18.44 19.7911 18.3927Z" fill="#002D62"/>
<path fill-rule="evenodd" clip-rule="evenodd" d="M14.7976 15.3349C14.3428 15.7453 14.0721 16.3834 14.0945 16.8994L14.0945 16.9006C14.117 17.6668 14.4261 18.3712 14.8343 19.0162C14.8737 19.0142 14.9142 19.0102 14.9572 19.0059L14.9591 19.0057C15.0168 18.9999 15.0793 18.9937 15.1426 18.9937H15.212L15.2263 19.0655C15.2494 19.1812 15.2744 19.3063 15.2744 19.433V19.5446L15.1669 19.5144C14.5766 19.3488 13.9691 19.1851 13.3631 19.1151L13.3619 19.1149C12.3668 18.9849 11.2803 19.0366 10.356 19.4657C12.1644 19.8053 13.9274 20.3827 15.6035 21.1771L15.6043 21.1774C17.1931 21.95 18.7381 22.9086 20.0559 24.0995C21.0459 23.3568 21.9647 22.5466 22.7469 21.6244L22.7516 21.6188L22.7572 21.6142C22.7785 21.5964 22.7873 21.5789 22.791 21.5617C22.7951 21.5427 22.7939 21.5186 22.7858 21.4883C22.7691 21.4264 22.7304 21.3617 22.6938 21.3005L22.6929 21.2991C22.3572 20.8076 21.748 20.5543 21.1639 20.4138C20.2565 20.204 19.2762 20.2268 18.3323 20.2741L18.169 20.2823L18.2567 20.1442C18.4429 19.851 18.7833 19.7519 19.0693 19.7042L19.071 19.7039L19.0727 19.7037C19.2426 19.6824 19.3668 19.6018 19.4022 19.4598L19.422 19.3806L19.5018 19.3974C19.6101 19.4203 19.7177 19.4443 19.825 19.4683C20.1291 19.5362 20.4312 19.6037 20.7436 19.6428C20.7125 19.496 20.6935 19.3587 20.6748 19.2087C20.6512 19.067 20.6277 18.9196 20.6042 18.7724L20.6042 18.7723C20.5806 18.6245 20.557 18.4771 20.5335 18.3356L20.5323 18.3287V18.3217C20.5323 18.259 20.4837 18.2108 20.4102 18.1916C20.3048 18.1727 20.1954 18.1658 20.0796 18.1586C20.0604 18.1574 20.0411 18.1562 20.0215 18.1549C19.8856 18.146 19.7424 18.1339 19.6036 18.0959L19.5698 18.0867L19.5524 18.0562C19.4769 17.9239 19.4292 17.7891 19.3806 17.652C19.3659 17.6107 19.3512 17.5692 19.3357 17.5275C19.3004 17.4531 19.3128 17.3817 19.3298 17.3271C19.3337 17.3148 19.338 17.3024 19.3425 17.2906C19.1377 17.2935 18.9287 17.3525 18.711 17.4318L18.3529 17.5623L18.6222 17.2925C18.7695 17.1449 18.9476 17.0153 19.157 16.9628L19.1625 16.9614L19.1682 16.9608C19.2773 16.9487 19.3919 16.9427 19.5065 16.9368L19.5144 16.9364C19.6018 16.9319 19.6895 16.9274 19.777 16.9203C19.7763 16.8316 19.7731 16.7405 19.7598 16.6605C19.6723 16.5726 19.5701 16.4642 19.5428 16.3042C19.4752 15.9899 19.3176 15.6954 19.1127 15.4442C18.6821 14.9451 18.0672 14.6916 17.4202 14.5989C16.4963 14.4834 15.5076 14.7156 14.7976 15.3349ZM14.6858 15.2079C15.4385 14.5509 16.4786 14.3104 17.4419 14.431L17.4434 14.4312C18.1171 14.5277 18.7759 14.7942 19.2417 15.3346L19.2431 15.3363C19.4622 15.6046 19.6345 15.924 19.7087 16.2706L19.7091 16.2725L19.7094 16.2744C19.7279 16.3855 19.8008 16.462 19.8982 16.5595L19.9163 16.5777L19.9213 16.6028C19.9465 16.7292 19.9465 16.8779 19.9465 16.9935V17.0742L19.8703 17.0818C19.7532 17.0936 19.6364 17.0996 19.5246 17.1053L19.5152 17.1058C19.4019 17.1116 19.2943 17.1173 19.1927 17.1284C19.1858 17.1302 19.1789 17.1321 19.172 17.1341C19.27 17.121 19.3689 17.1171 19.4684 17.1262L19.5667 17.1351L19.5428 17.2309C19.5355 17.2603 19.5249 17.2884 19.5156 17.3121C19.5142 17.3158 19.5128 17.3193 19.5114 17.3228C19.5034 17.3432 19.4967 17.3603 19.4914 17.3775C19.4793 17.4163 19.48 17.4378 19.4893 17.4564L19.4912 17.4603L19.4928 17.4645C19.5113 17.5139 19.5279 17.5606 19.5437 17.6053C19.5869 17.7269 19.6248 17.8339 19.6823 17.9414C19.793 17.9678 19.9098 17.978 20.0326 17.986C20.0511 17.9872 20.0698 17.9884 20.0887 17.9896C20.2049 17.9968 20.3265 18.0043 20.4434 18.0256L20.4461 18.0261L20.4488 18.0268C20.561 18.0549 20.6975 18.1459 20.7015 18.3142C20.7248 18.4544 20.7481 18.6002 20.7713 18.7458L20.7713 18.7459C20.7949 18.8937 20.8185 19.0411 20.842 19.1826L20.8423 19.1843L20.8425 19.186C20.866 19.3744 20.8891 19.5358 20.935 19.7198L20.9641 19.8365L20.8445 19.8245C20.4788 19.7879 20.1255 19.7089 19.7813 19.632C19.7003 19.6139 19.6199 19.5959 19.5399 19.5786C19.4594 19.7607 19.2782 19.8481 19.0955 19.8714C18.882 19.9071 18.6729 19.9681 18.5219 20.0956C19.4068 20.0555 20.3344 20.0483 21.2023 20.249L21.2031 20.2492C21.7979 20.3922 22.4618 20.6586 22.8342 21.2059L22.8356 21.208L22.8369 21.2101C22.8387 21.2132 22.8407 21.2165 22.8427 21.2198C22.8764 21.276 22.9262 21.3589 22.9492 21.4444C22.9617 21.4909 22.9679 21.5436 22.9565 21.5971C22.9452 21.65 22.9176 21.6986 22.8716 21.739C22.065 22.6889 21.1175 23.5191 20.1012 24.2769L20.0452 24.3187L19.9936 24.2716C18.6799 23.0727 17.13 22.1076 15.5307 21.3298C13.7914 20.5056 11.9582 19.9169 10.0783 19.5872L9.84094 19.5456L10.0522 19.4297C11.0649 18.874 12.2885 18.804 13.3832 18.947C13.9639 19.0142 14.5433 19.1649 15.0982 19.3195C15.0924 19.2693 15.0836 19.2182 15.0735 19.1654C15.0414 19.1676 15.0086 19.1709 14.974 19.1743L14.9721 19.1745C14.9144 19.1803 14.8519 19.1866 14.7886 19.1866H14.7424L14.7174 19.1476C14.2888 18.4796 13.9497 17.7315 13.9254 16.9061C13.9008 16.3348 14.1961 15.6494 14.6848 15.2088L14.6858 15.2079ZM19.433 18.115L19.5153 18.3128C19.5767 18.4606 19.6192 18.6133 19.6578 18.7648C19.6672 18.8017 19.6763 18.8384 19.6854 18.8749C19.714 18.9902 19.7424 19.1043 19.7776 19.219L19.8259 19.3762L19.6699 19.3241C19.6418 19.3147 19.6129 19.3097 19.5766 19.3036L19.5743 19.3032C19.5403 19.2976 19.4993 19.2907 19.4575 19.2768L19.4174 19.2634L19.404 19.2232C19.3761 19.1392 19.3761 19.0566 19.3761 18.9885C19.3706 18.9399 19.3625 18.8897 19.354 18.8368L19.3536 18.8342C19.3448 18.7795 19.3356 18.7219 19.3294 18.6647C19.3172 18.5513 19.3155 18.429 19.3579 18.3157L19.433 18.115ZM19.6764 18.2718L19.8144 18.3113C19.8502 18.3215 19.8885 18.3283 19.9302 18.3344C19.9422 18.3361 19.9548 18.3379 19.9678 18.3397C19.9978 18.3439 20.0297 18.3483 20.0597 18.3537C20.147 18.3693 20.2451 18.3968 20.3229 18.4747L20.3445 18.4964L20.3473 18.5268C20.3706 18.7832 20.4172 19.0637 20.4645 19.3481L20.4846 19.4691L19.9569 19.3633L19.9446 19.3101C19.9097 19.1586 19.8689 19.0127 19.8276 18.8646L19.8273 18.8637C19.7862 18.7165 19.7445 18.5672 19.7086 18.4116L19.6764 18.2718ZM19.9046 18.5017C19.9317 18.6083 19.961 18.7131 19.9906 18.8191L19.9908 18.8199C20.0272 18.9503 20.0641 19.0823 20.097 19.2188L20.2775 19.255C20.2393 19.0238 20.2031 18.7925 20.1819 18.5759C20.144 18.5476 20.0948 18.5319 20.0298 18.5203C20.0032 18.5155 19.9769 18.5118 19.9486 18.5079C19.9348 18.506 19.9206 18.504 19.9056 18.5018C19.9053 18.5018 19.905 18.5017 19.9046 18.5017ZM19.5454 19.013C19.5458 19.0552 19.5472 19.0923 19.5538 19.1275C19.5611 19.1291 19.5686 19.1305 19.5765 19.1319C19.5657 19.0921 19.5554 19.0524 19.5454 19.013Z" fill="white"/>
<path d="M4.92508 17.1159C5.65657 16.7612 6.45886 16.6667 7.26114 16.6903C8.13421 16.7139 9.03088 17.0686 9.64439 17.707C9.78597 17.8725 9.92755 18.038 9.99834 18.2508C9.83317 18.9128 9.31404 19.4094 8.79492 19.8113C7.85105 20.4733 6.64763 20.7098 5.53859 20.5206C4.8071 20.3788 4.09921 20.0478 3.58008 19.5276C3.4385 19.3384 3.22613 19.1256 3.32052 18.8656C3.58008 18.0853 4.19359 17.4706 4.92508 17.1159Z" fill="#002D62"/>
<path fill-rule="evenodd" clip-rule="evenodd" d="M7.25871 16.7749C6.46411 16.7514 5.67687 16.8454 4.96206 17.192C4.2473 17.5386 3.652 18.1373 3.40088 18.8922L3.40016 18.8944C3.36407 18.9938 3.38409 19.0861 3.43635 19.183C3.47608 19.2566 3.52877 19.3237 3.58382 19.3939C3.60381 19.4194 3.62412 19.4452 3.64423 19.472C4.14859 19.9753 4.83784 20.2983 5.55382 20.4373C6.64149 20.6226 7.82088 20.3905 8.74475 19.7431C9.2548 19.348 9.74599 18.8742 9.91008 18.2545C9.84329 18.0714 9.71875 17.924 9.58176 17.7638C8.98535 17.1443 8.11147 16.798 7.25891 16.7749L7.25871 16.7749ZM7.2636 16.6057C6.45366 16.5818 5.63637 16.677 4.88823 17.0397C4.14033 17.4023 3.50883 18.0327 3.24064 18.8378C3.18292 18.998 3.22183 19.1418 3.2874 19.2633C3.33461 19.3508 3.40101 19.4354 3.45867 19.5088C3.4779 19.5333 3.49615 19.5566 3.5124 19.5783L3.516 19.5831L3.52025 19.5873C4.05355 20.1217 4.77786 20.4593 5.52255 20.6037L5.52443 20.604C6.65394 20.7967 7.88023 20.5563 8.84357 19.8806L8.84521 19.8794L8.84679 19.8782C9.36781 19.4748 9.90789 18.9631 10.0805 18.2713L10.0865 18.2474L10.0787 18.2241C10.0027 17.9955 9.85185 17.8192 9.71324 17.6572L9.70717 17.6501L9.70547 17.6483C9.07492 16.9922 8.15634 16.6299 7.2636 16.6057Z" fill="white"/>
<path d="M22.1979 27.401V26.6208H22.5754C22.599 26.6208 22.6462 26.6208 22.6698 26.6444C22.717 26.6681 22.7406 26.6917 22.7642 26.7153C22.7878 26.7626 22.8114 26.7863 22.8114 26.8572C22.8114 26.9045 22.7878 26.9518 22.7642 26.9991C22.7406 27.0464 22.6934 27.07 22.6698 27.0936C22.6226 27.1173 22.599 27.1173 22.5518 27.1173H22.2687V26.9991H22.5046C22.5282 26.9991 22.5518 26.9991 22.5754 26.9754C22.599 26.9518 22.6226 26.9281 22.6226 26.8809C22.6226 26.8336 22.599 26.8099 22.5754 26.7863C22.5518 26.7626 22.5282 26.7626 22.5046 26.7626H22.3395V27.401H22.1979ZM22.6698 27.0227L22.8586 27.3774H22.6698L22.481 27.0227H22.6698ZM22.5046 27.8503C22.3866 27.8503 22.2923 27.8266 22.1743 27.7793C22.0799 27.732 21.9855 27.6847 21.9147 27.5902C21.8439 27.5192 21.7731 27.4247 21.7259 27.3301C21.6788 27.2355 21.6552 27.1173 21.6552 26.9991C21.6552 26.8809 21.6788 26.7863 21.7259 26.6681C21.7731 26.5735 21.8203 26.4789 21.9147 26.408C21.9855 26.337 22.0799 26.2661 22.1743 26.2188C22.2687 26.1715 22.3866 26.1479 22.5046 26.1479C22.6226 26.1479 22.717 26.1715 22.835 26.2188C22.9294 26.2661 23.0238 26.3134 23.0945 26.408C23.1653 26.4789 23.2361 26.5735 23.2833 26.6681C23.3305 26.7626 23.3541 26.8809 23.3541 26.9991C23.3541 27.1173 23.3305 27.2119 23.2833 27.3301C23.2361 27.4247 23.1889 27.5192 23.0945 27.5902C23.0238 27.6611 22.9294 27.732 22.835 27.7793C22.717 27.8266 22.599 27.8503 22.5046 27.8503ZM22.5046 27.6611C22.6226 27.6611 22.717 27.6375 22.8114 27.5665C22.9058 27.5192 22.9766 27.4247 23.0474 27.3301C23.0945 27.2355 23.1417 27.1173 23.1417 27.0227C23.1417 26.9045 23.1181 26.8099 23.0474 26.7153C23.0002 26.6208 22.9058 26.5498 22.8114 26.4789C22.717 26.4316 22.599 26.3843 22.5046 26.3843C22.4102 26.3843 22.2923 26.408 22.1979 26.4789C22.1035 26.5262 22.0327 26.6208 21.9619 26.7153C21.9147 26.8099 21.8675 26.9281 21.8675 27.0227C21.8675 27.1409 21.8911 27.2355 21.9619 27.3301C22.0091 27.4247 22.1035 27.4956 22.1979 27.5665C22.2687 27.6138 22.3866 27.6611 22.5046 27.6611Z" fill="#002D62"/>
<path fill-rule="evenodd" clip-rule="evenodd" d="M22.5047 26.2325C22.3969 26.2325 22.2924 26.2543 22.2122 26.2945C22.1268 26.3373 22.0397 26.4026 21.9746 26.4678L21.9704 26.472L21.9656 26.4756C21.8902 26.5323 21.8507 26.6077 21.8033 26.7027C21.7597 26.8126 21.7398 26.8957 21.7398 26.9991C21.7398 27.1072 21.7615 27.2119 21.8017 27.2923C21.8444 27.378 21.9096 27.4652 21.9746 27.5304L21.9789 27.5347L21.9825 27.5395C22.039 27.615 22.1142 27.6546 22.209 27.7021C22.3186 27.7458 22.4015 27.7657 22.5047 27.7657C22.5855 27.7657 22.6915 27.7453 22.8002 27.7021C22.8846 27.6593 22.9704 27.5948 23.0347 27.5304L23.0389 27.5262L23.0437 27.5226C23.1191 27.4659 23.1586 27.3905 23.206 27.2955C23.2497 27.1856 23.2695 27.1025 23.2695 26.9991C23.2695 26.891 23.2478 26.7863 23.2076 26.7059C23.1649 26.6202 23.0997 26.533 23.0347 26.4678L23.0304 26.4635L23.0268 26.4587C22.9703 26.3832 22.8951 26.3436 22.8003 26.2961C22.6907 26.2524 22.6078 26.2325 22.5047 26.2325ZM22.1364 26.1432C22.2449 26.0888 22.3765 26.0633 22.5047 26.0633C22.6365 26.0633 22.7418 26.0903 22.8665 26.1403L22.8698 26.1416L22.8729 26.1432C22.8746 26.1441 22.8764 26.1449 22.8781 26.1458C22.9683 26.1909 23.0762 26.245 23.1586 26.3524C23.2337 26.4286 23.3083 26.5286 23.3591 26.6303C23.4133 26.739 23.4388 26.8707 23.4388 26.9991C23.4388 27.1311 23.4118 27.2365 23.3619 27.3615L23.3606 27.3648L23.3591 27.3679C23.3582 27.3696 23.3573 27.3714 23.3565 27.3731C23.3114 27.4634 23.2575 27.5716 23.1503 27.6541C23.0743 27.7294 22.9744 27.8042 22.8729 27.855L22.8698 27.8566L22.8665 27.8579C22.7404 27.9084 22.6117 27.9349 22.5047 27.9349C22.3729 27.9349 22.2676 27.9079 22.1428 27.8579L22.1396 27.8566L22.1364 27.855C22.1347 27.8541 22.1329 27.8533 22.1312 27.8524C22.0411 27.8073 21.9331 27.7532 21.8507 27.6458C21.7756 27.5696 21.701 27.4696 21.6503 27.3679C21.596 27.2592 21.5706 27.1275 21.5706 26.9991C21.5706 26.8671 21.5975 26.7617 21.6474 26.6367L21.6487 26.6334L21.6503 26.6303C21.6511 26.6286 21.652 26.6268 21.6529 26.625C21.6979 26.5348 21.7518 26.4266 21.859 26.3441C21.935 26.2688 22.0349 26.194 22.1364 26.1432ZM22.1531 26.4068C22.2654 26.3251 22.4003 26.2997 22.5047 26.2997C22.6206 26.2997 22.7543 26.3557 22.8493 26.4033L22.8561 26.4067L22.8623 26.4113C22.8648 26.4132 22.8673 26.4151 22.8699 26.417C22.9567 26.4822 23.0624 26.5616 23.1195 26.6706C23.2002 26.7811 23.2264 26.8931 23.2264 27.0227C23.2264 27.1388 23.1706 27.2727 23.1231 27.3679L23.1197 27.3747L23.1151 27.3808C23.1132 27.3834 23.1113 27.3859 23.1094 27.3885C23.0443 27.4755 22.9652 27.5814 22.8563 27.6386C22.746 27.7195 22.6342 27.7458 22.5047 27.7458C22.3668 27.7458 22.2327 27.6916 22.1509 27.6369L22.1489 27.6356L22.1471 27.6342C22.1445 27.6323 22.142 27.6304 22.1394 27.6285C22.0526 27.5633 21.9469 27.4839 21.8898 27.3748C21.8091 27.2644 21.7829 27.1524 21.7829 27.0227C21.7829 26.9066 21.8387 26.7728 21.8862 26.6776L21.8896 26.6708L21.8942 26.6647C21.8961 26.6621 21.898 26.6596 21.8999 26.657C21.965 26.57 22.0442 26.4641 22.1531 26.4068ZM22.2634 26.5362L22.5766 26.5362C22.5883 26.5362 22.6119 26.5362 22.6366 26.5403C22.6571 26.5437 22.6894 26.5516 22.7176 26.5739C22.7708 26.6021 22.8 26.6314 22.8239 26.6553L22.8338 26.6653L22.8399 26.6776C22.8429 26.6835 22.8465 26.6899 22.8505 26.6968C22.8694 26.7303 22.896 26.7772 22.896 26.8572C22.896 26.9249 22.8644 26.9881 22.8431 27.0306C22.842 27.0328 22.841 27.0348 22.8399 27.0369C22.8291 27.0586 22.8156 27.0764 22.8021 27.0911L22.9342 27.3392C22.9474 27.3223 22.9609 27.3044 22.975 27.2856C23.0203 27.1935 23.0571 27.0941 23.0571 27.0227C23.0571 26.9183 23.0371 26.8428 22.9796 26.7661L22.9751 26.76L22.9717 26.7532C22.9359 26.6815 22.8625 26.6233 22.7668 26.5512C22.6749 26.5058 22.5757 26.469 22.5047 26.469C22.4274 26.469 22.3365 26.4874 22.2634 26.5362ZM22.8189 27.462H22.619L22.4806 27.2019H22.4241V27.4857H22.2312C22.2363 27.4895 22.2415 27.4935 22.2468 27.4974C22.3067 27.5369 22.4076 27.5765 22.5047 27.5765C22.6088 27.5765 22.6841 27.5564 22.7606 27.4989L22.7667 27.4943L22.7735 27.4909C22.7892 27.483 22.8043 27.4734 22.8189 27.462ZM22.1133 27.3891V26.6593C22.088 26.6889 22.0622 26.7227 22.0343 26.7599C21.989 26.8519 21.9522 26.9514 21.9522 27.0227C21.9522 27.1272 21.9723 27.2027 22.0297 27.2794L22.0343 27.2855L22.0377 27.2923C22.0548 27.3267 22.0806 27.3579 22.1133 27.3891ZM22.6999 26.9381C22.7181 26.9002 22.7268 26.877 22.7268 26.8572C22.7268 26.8326 22.723 26.8204 22.7189 26.8107C22.7163 26.8046 22.7129 26.7982 22.7075 26.7885C22.7068 26.7872 22.7059 26.7857 22.7051 26.7841C22.7022 26.7789 22.6987 26.7727 22.6951 26.766C22.6775 26.7487 22.6616 26.735 22.6319 26.7201L22.6241 26.7162C22.6279 26.7193 22.6316 26.7228 22.6353 26.7265C22.6359 26.7271 22.6365 26.7277 22.6371 26.7283C22.6621 26.7532 22.7073 26.7984 22.7073 26.8809C22.7073 26.9024 22.7042 26.9214 22.6992 26.9381H22.6999ZM22.4241 26.9145H22.5047C22.5077 26.9145 22.51 26.9145 22.5122 26.9144C22.5142 26.9144 22.5157 26.9144 22.5169 26.9143C22.5288 26.9024 22.5327 26.8978 22.5353 26.8936C22.5362 26.892 22.5367 26.8908 22.5371 26.8895C22.5375 26.8882 22.538 26.8855 22.538 26.8809C22.538 26.8762 22.5375 26.8736 22.5371 26.8722C22.5367 26.8709 22.5362 26.8697 22.5353 26.8682C22.5327 26.8639 22.5288 26.8594 22.5169 26.8475C22.5157 26.8474 22.5142 26.8473 22.5122 26.8473C22.51 26.8473 22.5077 26.8473 22.5047 26.8473H22.4241V26.9145Z" fill="white"/>
<path d="M22.1979 27.401V26.6208H22.5754C22.599 26.6208 22.6462 26.6208 22.6698 26.6444C22.717 26.6681 22.7406 26.6917 22.7642 26.7153C22.7878 26.7626 22.8114 26.7863 22.8114 26.8572C22.8114 26.9045 22.7878 26.9518 22.7642 26.9991C22.7406 27.0464 22.6934 27.07 22.6698 27.0936C22.6226 27.1173 22.599 27.1173 22.5518 27.1173H22.2687V26.9991H22.5046C22.5282 26.9991 22.5518 26.9991 22.5754 26.9754C22.599 26.9518 22.6226 26.9281 22.6226 26.8809C22.6226 26.8336 22.599 26.8099 22.5754 26.7863C22.5518 26.7626 22.5282 26.7626 22.5046 26.7626H22.3395V27.401H22.1979ZM22.6698 27.0227L22.8586 27.3774H22.6698L22.481 27.0227H22.6698ZM22.5046 27.8503C22.3866 27.8503 22.2923 27.8266 22.1743 27.7793C22.0799 27.732 21.9855 27.6847 21.9147 27.5902C21.8439 27.5192 21.7731 27.4247 21.7259 27.3301C21.6788 27.2355 21.6552 27.1173 21.6552 26.9991C21.6552 26.8809 21.6788 26.7863 21.7259 26.6681C21.7731 26.5735 21.8203 26.4789 21.9147 26.408C21.9855 26.337 22.0799 26.2661 22.1743 26.2188C22.2687 26.1715 22.3866 26.1479 22.5046 26.1479C22.6226 26.1479 22.717 26.1715 22.835 26.2188C22.9294 26.2661 23.0238 26.3134 23.0945 26.408C23.1653 26.4789 23.2361 26.5735 23.2833 26.6681C23.3305 26.7626 23.3541 26.8809 23.3541 26.9991C23.3541 27.1173 23.3305 27.2119 23.2833 27.3301C23.2361 27.4247 23.1889 27.5192 23.0945 27.5902C23.0238 27.6611 22.9294 27.732 22.835 27.7793C22.717 27.8266 22.599 27.8503 22.5046 27.8503ZM22.5046 27.6611C22.6226 27.6611 22.717 27.6375 22.8114 27.5665C22.9058 27.5192 22.9766 27.4247 23.0474 27.3301C23.0945 27.2355 23.1417 27.1173 23.1417 27.0227C23.1417 26.9045 23.1181 26.8099 23.0474 26.7153C23.0002 26.6208 22.9058 26.5498 22.8114 26.4789C22.717 26.4316 22.599 26.3843 22.5046 26.3843C22.4102 26.3843 22.2923 26.408 22.1979 26.4789C22.1035 26.5262 22.0327 26.6208 21.9619 26.7153C21.9147 26.8099 21.8675 26.9281 21.8675 27.0227C21.8675 27.1409 21.8911 27.2355 21.9619 27.3301C22.0091 27.4247 22.1035 27.4956 22.1979 27.5665C22.2687 27.6138 22.3866 27.6611 22.5046 27.6611Z" fill="#002D62"/>
</svg>
